<?xml version="1.0" encoding="UTF-8" standalone="no"?>
<!-- Created with Inkscape (http://www.inkscape.org/) -->

<svg
        xmlns:dc="http://purl.org/dc/elements/1.1/"
        xmlns:cc="http://creativecommons.org/ns#"
        xmlns:rdf="http://www.w3.org/1999/02/22-rdf-syntax-ns#"
        xmlns="http://www.w3.org/2000/svg"
        xmlns:sodipodi="http://sodipodi.sourceforge.net/DTD/sodipodi-0.dtd"
        xmlns:inkscape="http://www.inkscape.org/namespaces/inkscape"
        width="512"
        height="512"
        viewBox="0 0 135.46666 135.46667"
        version="1.1"
        id="svg8"
        inkscape:version="0.92.3 (2405546, 2018-03-11)"
        sodipodi:docname="perfecttime_logo.svg">
    <defs
            id="defs2"/>
    <sodipodi:namedview
            id="base"
            pagecolor="#ffffff"
            bordercolor="#666666"
            borderopacity="1.0"
            inkscape:pageopacity="0.0"
            inkscape:pageshadow="2"
            inkscape:zoom="0.7"
            inkscape:cx="281.24876"
            inkscape:cy="278.40766"
            inkscape:document-units="mm"
            inkscape:current-layer="layer1"
            showgrid="false"
            units="px"
            inkscape:window-width="958"
            inkscape:window-height="1008"
            inkscape:window-x="-7"
            inkscape:window-y="0"
            inkscape:window-maximized="0"/>
    <metadata
            id="metadata5">
        <rdf:RDF>
            <cc:Work
                    rdf:about="">
                <dc:format>image/svg+xml</dc:format>
                <dc:type
                        rdf:resource="http://purl.org/dc/dcmitype/StillImage"/>
                <dc:title/>
            </cc:Work>
        </rdf:RDF>
    </metadata>
    <g
            inkscape:label="Ebene 1"
            inkscape:groupmode="layer"
            id="layer1"
            transform="translate(0,-161.53332)">
        <path
                style="fill:#000000;stroke-width:0.26726952"
                d="m 62.441226,296.86987 c -20.98349,-1.7312 -39.7764,-12.86295 -51.36189,-30.42359 C -0.33345473,249.1474 -3.0895917,227.60745 3.5585363,207.66923 9.1139963,191.00801 21.834426,176.50567 37.718796,168.7237 c 12.56022,-6.15343 25.93743,-8.26201 39.76886,-6.26857 27.560314,3.97211 50.029694,24.79741 56.187544,52.07631 2.10361,9.31889 2.10551,20.38442 0.005,29.68918 -1.24553,5.51762 -3.70497,12.19572 -6.19992,16.83462 -10.55439,19.62393 -29.892514,32.87934 -51.835474,35.53088 -3.28997,0.39755 -10.06065,0.54306 -13.20367,0.28375 z"
                id="path16"
                inkscape:connector-curvature="0"/>
        <ellipse
                style="fill:none;stroke-width:0.26458332"
                id="path20"
                cx="58.665661"
                cy="206.26198"
                rx="21.515198"
                ry="25.256971"/>
        <ellipse
                style="fill:none;stroke-width:0.26458332"
                id="path22"
                cx="82.98719"
                cy="253.70232"
                rx="24.9897"
                ry="18.976137"/>
        <ellipse
                style="fill:none;stroke-width:0.26458332"
                id="path24"
                cx="54.65662"
                cy="223.63451"
                rx="32.740517"
                ry="31.404167"/>
        <path
                style="fill:#ffffff;stroke-width:0.24544866"
                d="M 62.774889,291.26745 C 43.565386,289.67256 26.361265,279.41728 15.755237,263.2393 5.3073069,247.30245 2.7841794,227.45847 8.8702603,209.0901 13.956051,193.74073 25.60107,180.38025 40.142542,173.211 c 11.498355,-5.66893 23.744628,-7.61149 36.406721,-5.77501 25.230317,3.65937 45.800087,22.84496 51.437337,47.97602 1.92577,8.58517 1.92751,18.77944 0.005,27.35158 -1.14023,5.08319 -3.39175,11.23548 -5.67577,15.50913 -9.6621,18.07881 -27.365342,30.29055 -47.4532,32.73333 -3.011829,0.36624 -9.210102,0.50029 -12.087405,0.2614 z"
                id="path16-2"
                inkscape:connector-curvature="0"/>
        <path
                style="fill:#000000;stroke-width:0.23003022"
                d="m 62.973431,286.93837 c -18.061017,-1.4899 -34.236543,-11.06998 -44.208467,-26.18286 -9.8232727,-14.8876 -12.1955496,-33.4251 -6.473338,-50.58412 4.781721,-14.33882 15.730509,-26.81968 29.402582,-33.51694 10.8109,-5.29569 22.324998,-7.11035 34.230058,-5.39478 23.721862,3.41844 43.061794,21.3409 48.362024,44.8174 1.81062,8.01991 1.81227,17.54304 0.004,25.55081 -1.07207,4.74853 -3.18898,10.49576 -5.33643,14.48806 -9.08444,16.88853 -25.729235,28.2963 -44.616088,30.57823 -2.83176,0.34214 -8.659452,0.46736 -11.36473,0.2442 z"
                id="path16-5"
                inkscape:connector-curvature="0"/>
        <rect
                style="fill:#ffffff;stroke-width:0.26640031"
                id="rect56"
                width="116.78073"
                height="39.021351"
                x="9.0871639"
                y="210.40465"/>
        <rect
                style="fill:#f9f9f9;stroke-width:0.04971231"
                id="rect74"
                width="0.32439479"
                height="38.557564"
                x="-227.50775"
                y="377.72815"
                transform="matrix(1,0,0.74021061,0.67237508,0,0)"/>
        <rect
                style="fill:#f9f9f9;stroke-width:0.05061262"
                id="rect74-1"
                width="0.34336001"
                height="37.75927"
                x="-349.40546"
                y="370.48376"
                transform="matrix(-1,0,-0.72704463,0.68659021,0,0)"/>
        <path
                style="fill:#ffffff;stroke:#ffffff;stroke-width:0.26458332px;stroke-linecap:butt;stroke-linejoin:miter;stroke-opacity:1"
                d="m 22.71791,190.62672 15.234362,6.14719 8.819896,-7.48354 4.81085,3.20723 13.363477,-13.89801 13.096205,13.89801 5.345393,-3.20723 11.225318,4.54358 10.958049,-9.35444 -36.348653,-12.82893 z"
                id="path3737"
                inkscape:connector-curvature="0"/>
        <path
                style="fill:#ffffff;stroke:#ffffff;stroke-width:1.01015258;stroke-opacity:1"
                d="M 98.880431,99.981444 C 126.47624,71.649787 167.59094,48.976492 207.43386,40.118089 c 17.25386,-3.836105 27.85619,-4.944073 47.47717,-4.961472 47.25707,-0.04191 91.38861,14.182737 129.10078,41.612253 4.054,2.94863 7.20565,5.526402 7.00367,5.728384 -0.20198,0.201981 -29.39566,-9.877657 -64.87483,-22.399194 L 261.63307,37.331626 178.53986,71.229764 C 132.8386,89.873738 95.091382,105.1279 94.657151,105.1279 c -0.43423,0 1.466246,-2.31591 4.22328,-5.146456 z"
                id="path4544"
                inkscape:connector-curvature="0"
                transform="matrix(0.26458333,0,0,0.26458333,0,161.53332)"/>
        <path
                style="fill:#ffffff;stroke:#ffffff;stroke-width:1.01015258;stroke-opacity:1"
                d="M 224.60645,488.52209 C 172.21334,480.87888 127.0428,458.3014 90.242182,421.36314 31.946839,362.84973 8.8805782,279.06365 28.767489,198.06193 39.234782,155.42743 61.045986,117.88492 93.931977,85.897642 128.4683,52.305135 169.59374,31.568924 218.54553,23.065188 c 17.10784,-2.971914 53.22567,-3.199038 70.67467,-0.444432 51.45456,8.122929 97.02607,31.526539 132.40482,67.99753 18.74193,19.320554 31.72812,37.623494 42.9054,60.471554 16.66332,34.06236 23.89792,65.60411 23.85884,104.02081 -0.0288,28.2668 -2.82555,47.3151 -10.44777,71.15735 -9.47449,29.63609 -21.71426,52.58803 -40.79128,76.4915 -37.11677,46.50723 -92.54078,77.79611 -151.93461,85.77263 -13.04737,1.75224 -48.56926,1.74636 -60.60915,-0.0101 z m 51.27375,-14.70234 c 66.78272,-5.91155 130.28805,-45.38798 166.66556,-103.60327 7.15787,-11.45483 18.43639,-34.63645 18.43639,-37.89377 0,-0.55107 -82.72143,-0.92064 -206.07112,-0.92064 -138.52901,0 -206.071123,0.33554 -206.071123,1.02373 0,2.17377 10.054635,23.3401 15.389126,32.39614 35.403985,60.10315 94.147147,98.96651 163.912947,108.44169 12.32216,1.67352 32.4642,1.90816 47.73822,0.55612 z m 78.02578,-151.41448 c 0,-4.4455 0.2065,-4.90219 2.00409,-4.43212 6.28121,1.64258 10.11774,-3.5885 10.11774,-13.79549 0,-10.10655 -3.71447,-14.63284 -9.53164,-11.61485 -1.42461,0.7391 -2.59019,0.9162 -2.59019,0.39356 0,-0.52264 -0.90914,-0.95025 -2.02031,-0.95025 -1.94334,0 -2.0203,0.67344 -2.0203,17.67767 0,17.00423 0.077,17.67767 2.0203,17.67767 1.7458,0 2.02031,-0.67344 2.02031,-4.95619 z m -171.4734,-4.58658 c 1.52786,-0.797 2.77792,-1.02149 2.77792,-0.49885 0,0.52264 0.94935,0.95025 2.10968,0.95025 2.03133,0 2.09698,-0.40884 1.76777,-11.00855 -0.4201,-13.52576 -1.59865,-15.52434 -8.87496,-15.05008 -4.14986,0.27046 -4.62954,0.56467 -4.91232,3.01288 -0.3046,2.63706 -0.22598,2.68014 2.80361,1.5366 3.48547,-1.31561 6.36062,-0.20459 6.92775,2.67706 0.23372,1.18748 -0.39924,1.65949 -2.22531,1.65949 -8.52191,0 -13.07168,9.8702 -7.23858,15.70328 2.8908,2.89081 3.18927,2.93507 6.86444,1.01792 z m 71.87716,0.31143 c 7.67511,-3.49702 7.48997,-23.21908 -0.24329,-25.91491 -6.46117,-2.25237 -10.77218,2.91934 -10.77218,12.92289 0,8.46776 2.17959,12.17083 8.28623,14.07811 0.11276,0.0353 1.34091,-0.45352 2.72924,-1.08609 z m 19.03657,-0.31143 c 1.52786,-0.797 2.77792,-1.02149 2.77792,-0.49885 0,0.52264 0.68185,0.95025 1.51523,0.95025 1.26916,0 1.51523,-2.13255 1.51523,-13.13199 0,-10.99944 -0.24607,-13.13198 -1.51523,-13.13198 -1.24028,0 -1.51523,1.73712 -1.51523,9.57317 0,9.08877 -0.12738,9.65662 -2.51758,11.22274 -4.73289,3.10111 -5.56364,1.58439 -5.56364,-10.15761 0,-10.11115 -0.10442,-10.6383 -2.10723,-10.6383 -2.03453,0 -2.09552,0.40396 -1.76777,11.7081 0.31544,10.87956 0.50823,11.84462 2.72421,13.63706 2.84891,2.30439 2.9224,2.30972 6.45409,0.46741 z m -123.49115,-5.4896 v -5.94099 l 4.52452,-1.13928 c 5.41837,-1.36437 7.59731,-4.72663 7.59731,-11.72322 0,-6.79548 -3.08571,-9.6007 -10.56069,-9.6007 h -5.60175 v 17.17259 c 0,16.49916 0.0792,17.1726 2.02031,17.1726 1.79129,0 2.0203,-0.67344 2.0203,-5.941 z m 19.1929,-12.31581 c 0,-16.84333 -0.13687,-18.23054 -1.76777,-17.91737 -1.5844,0.30425 -1.79666,2.06294 -2.04635,16.95535 -0.15322,9.13874 -0.0538,17.20155 0.22084,17.91736 0.27468,0.71581 1.19553,1.30147 2.04635,1.30147 1.33208,0 1.54693,-2.53568 1.54693,-18.25681 z m 28.50023,8.44384 c 0.27969,-9.49303 0.37853,-9.86305 3.03133,-11.34941 4.09149,-2.29245 4.93692,-0.63226 5.57502,10.94794 0.42108,7.64172 0.90749,10.21444 1.93118,10.21444 2.11008,0 1.93184,-20.96933 -0.20416,-24.01889 -1.69318,-2.41736 -5.36285,-2.92941 -8.59543,-1.19939 -1.34687,0.72083 -1.9539,0.72083 -1.9539,0 0,-0.57513 -0.68185,-1.04569 -1.51523,-1.04569 -1.26916,0 -1.51523,2.13254 -1.51523,13.13198 0,10.85506 0.25638,13.13199 1.47865,13.13199 1.17678,0 1.53768,-2.00334 1.76777,-9.81297 z m 38.16984,2.12098 c 0,-6.78338 0.4773,-8.7673 4.04061,-16.79508 2.22233,-5.00669 4.04061,-9.27297 4.04061,-9.48059 0,-0.20764 -0.85951,-0.37753 -1.91002,-0.37753 -1.38397,0 -2.69781,1.80837 -4.77046,6.56599 -1.57326,3.6113 -3.13364,6.56599 -3.46752,6.56599 -0.3339,0 -1.76966,-2.84105 -3.19058,-6.31345 -1.88593,-4.60872 -3.16148,-6.40061 -4.72399,-6.63625 -1.17727,-0.17753 -2.14048,-0.0866 -2.14048,0.20201 0,0.28865 1.81827,4.71706 4.04061,9.84091 3.49884,8.06699 4.04061,10.30856 4.04061,16.71804 0,6.72851 0.18381,7.40195 2.0203,7.40195 1.84343,0 2.02031,-0.67344 2.02031,-7.69199 z m 52.52793,-1.06731 c 0,-9.61102 1.30399,-12.45391 5.7124,-12.45391 1.85331,0 2.36882,-0.54958 2.36882,-2.52538 0,-2.97228 -2.39481,-3.36328 -5.83615,-0.95287 -2.03197,1.42324 -2.24507,1.42324 -2.24507,0 0,-0.86488 -0.68185,-1.57251 -1.51523,-1.57251 -1.26916,0 -1.51523,2.13254 -1.51523,13.13198 0,10.99944 0.24607,13.13199 1.51523,13.13199 1.23038,0 1.51523,-1.64669 1.51523,-8.7593 z m 31.31473,-5.88791 v -14.64722 h 4.04061 c 3.63655,0 4.04061,-0.25253 4.04061,-2.52538 v -2.52538 h -10.10153 -10.10152 v 2.52538 c 0,2.27285 0.40406,2.52538 4.04061,2.52538 h 4.04061 v 14.64722 c 0,13.97377 0.0928,14.64721 2.0203,14.64721 1.92743,0 2.02031,-0.67344 2.02031,-14.64721 z m 11.11168,5.88791 c 0,-9.61102 1.30398,-12.45391 5.7124,-12.45391 1.85331,0 2.36882,-0.54958 2.36882,-2.52538 0,-2.97228 -2.39481,-3.36328 -5.83615,-0.95287 -2.04492,1.43232 -2.24507,1.42572 -2.24507,-0.074 0,-1.02376 -0.66865,-1.51846 -1.76777,-1.30787 -1.54003,0.29506 -1.80479,1.82576 -2.05517,11.88159 -0.31292,12.56744 -0.0524,14.19179 2.27601,14.19179 1.27021,0 1.54693,-1.56691 1.54693,-8.7593 z m 14.14213,-4.37269 c 0,-12.45854 -0.1036,-13.13198 -2.0203,-13.13198 -1.91671,0 -2.02031,0.67344 -2.02031,13.13198 0,12.45855 0.1036,13.13199 2.02031,13.13199 1.9167,0 2.0203,-0.67344 2.0203,-13.13199 z m 0,-18.68782 c 0,-1.85194 -0.53874,-2.52538 -2.0203,-2.52538 -1.48156,0 -2.02031,0.67344 -2.02031,2.52538 0,1.85195 0.53875,2.52538 2.02031,2.52538 1.48156,0 2.0203,-0.67343 2.0203,-2.52538 z m -189.26986,-32.9799 c 2.88145,-1.37691 4.14032,-4.54968 2.99226,-7.54148 -0.46909,-1.22242 -1.10787,-1.08541 -3.62875,0.77837 -4.28436,3.16756 -9.8224,2.89793 -12.85339,-0.62579 -1.26567,-1.47143 -2.30122,-3.52195 -2.30122,-4.5567 0,-1.03474 -0.27592,-2.60039 -0.61316,-3.4792 -0.53419,-1.39208 0.70165,-1.59785 9.59645,-1.59785 h 10.2096 l -0.0222,-4.79822 c -0.0233,-5.04442 -2.60297,-11.97322 -5.28343,-14.19102 -2.68035,-2.21771 -8.22119,-2.59405 -11.70071,-0.79472 -9.28794,4.80299 -11.11877,26.88953 -2.87485,34.68129 1.76751,1.67056 3.89551,3.30754 4.72889,3.63772 2.21739,0.87852 8.41688,0.0806 11.75049,-1.5124 z m 67.02096,0.54534 c 3.72736,-1.49139 4.06106,-1.93522 4.06106,-5.40138 v -3.77646 l -4.92464,2.43717 c -4.59569,2.27438 -5.16009,2.3388 -8.4496,0.96435 -2.43945,-1.01927 -3.87813,-2.48593 -4.67182,-4.76267 -2.36695,-6.78985 -2.20489,-6.92478 8.70214,-7.24496 l 9.84899,-0.28911 -0.36467,-5.55584 c -0.69121,-10.53059 -5.90982,-16.18984 -13.59907,-14.74733 -6.80803,1.27719 -10.99737,9.02426 -10.95333,20.2552 0.0412,10.50719 2.44752,15.54516 8.75463,18.32919 4.0451,1.78555 6.73419,1.73727 11.59631,-0.20816 z m 27.76537,-0.0774 c 3.17213,-1.51271 3.5698,-2.13501 3.5698,-5.58611 v -3.88376 l -3.00123,2.21891 c -3.93387,2.90844 -8.88182,2.90258 -11.24295,-0.0133 -3.52147,-4.34883 -3.70864,-16.93107 -0.32869,-22.09564 1.94211,-2.96754 7.60402,-3.05692 11.63902,-0.18376 l 2.93385,2.0891 v -4.02585 c 0,-3.8297 -0.21744,-4.10889 -4.46295,-5.73027 -10.568,-4.03592 -17.7604,3.64573 -17.7604,18.96855 0,9.26832 2.78352,15.52863 8.08122,18.17513 4.40421,2.20015 6.07685,2.21075 10.57233,0.067 z m 22.00509,0.70596 c 1.31786,-0.0103 1.7681,-0.84932 1.76907,-3.29679 10e-4,-3.18927 -0.12129,-3.28299 -4.29315,-3.28299 h -4.29445 l -0.28272,-12.87945 -0.28271,-12.87944 h 4.57586 c 4.41086,0 4.57587,-0.10928 4.57587,-3.03046 0,-2.91295 -0.17423,-3.03046 -4.4929,-3.03046 h -4.4929 l -0.30533,-5.3033 c -0.28222,-4.902 -0.49642,-5.3033 -2.83071,-5.3033 -2.33428,0 -2.54848,0.4013 -2.83071,5.3033 -0.21963,3.81493 -0.71576,5.3033 -1.76776,5.3033 -0.9515,0 -1.46244,1.05877 -1.46244,3.03046 0,1.92604 0.51609,3.03046 1.41612,3.03046 1.12481,0 1.49241,2.75331 1.78701,13.38452 0.3877,13.99118 1.17224,16.76133 5.33384,18.83321 1.1383,0.56671 2.97877,0.82886 4.08994,0.58256 1.11116,-0.24631 2.8158,-0.45404 3.78807,-0.46162 z m 135.08746,-0.62855 c 3.72736,-1.49142 4.06105,-1.93525 4.06105,-5.40141 v -3.77646 l -4.83591,2.39326 c -4.16602,2.06174 -5.28973,2.23507 -8.11192,1.25126 -3.55564,-1.23951 -6.24507,-5.31307 -6.24507,-9.45912 v -2.57555 h 9.59645 9.59645 v -5.08321 c 0,-10.085 -5.27757,-16.76365 -12.48708,-15.80211 -9.08166,1.21124 -14.29394,12.68622 -11.78096,25.93608 1.2529,6.60606 3.48176,9.97843 8.1774,12.37281 4.29559,2.19036 6.83994,2.22091 12.02959,0.14442 z m -294.9441,-8.33935 v -8.95406 l 4.41704,-0.60542 c 9.20171,-1.26124 13.37281,-5.46254 14.39504,-14.4993 0.75866,-6.70675 -1.29744,-12.30517 -5.57694,-15.185 -2.80202,-1.88558 -4.79632,-2.30977 -10.85915,-2.30977 h -7.42676 v 25.25381 25.25382 h 2.52539 c 2.5038,0 2.52538,-0.0765 2.52538,-8.95408 z m 57.57869,-4.6142 v -13.56827 l 3.08387,-2.19591 c 2.0726,-1.47581 4.07468,-2.05048 6.10539,-1.75243 1.66183,0.2439 3.25562,0.0647 3.54175,-0.39826 0.28611,-0.46296 1.17524,-0.84173 1.97582,-0.84173 1.20673,0 1.45561,2.76346 1.45561,16.16244 v 16.16244 h 3.03046 3.03046 V 238.46804 222.3056 h 4.1077 c 3.88519,0 4.09039,-0.15049 3.78808,-2.77792 -0.28551,-2.48133 -0.7741,-2.81089 -4.57627,-3.08676 -4.19495,-0.30436 -4.24791,-0.35559 -3.6545,-3.53553 0.81489,-4.36675 1.67796,-5.09475 5.85387,-4.93776 3.31302,0.12455 3.57249,-0.0821 3.57249,-2.84614 0,-2.31307 -0.54916,-3.11828 -2.45248,-3.59598 -5.87009,-1.47331 -10.15048,1.89104 -11.80349,9.27744 -0.66979,2.99295 -1.71368,5.46655 -2.31975,5.49689 -8.36383,0.41858 -9.88567,0.7883 -12.202,2.96438 l -2.53701,2.38339 v -2.70147 c 0,-2.20812 -0.46118,-2.70146 -2.52538,-2.70146 h -2.52538 v 19.1929 19.1929 h 2.52538 2.52538 z m 140.17837,-8.90762 0.27223,-21.97081 h 6.04122 c 6.03903,0 6.04122,-0.001 6.04122,-3.03046 v -3.03046 h -15.65737 -15.65736 v 3.03046 3.03046 h 6.56599 6.56599 v 22.29045 22.29045 l 2.77792,-0.31964 2.77792,-0.31963 z m 21.44604,3.283 v -19.1929 h -2.52538 -2.52538 v 19.1929 19.1929 h 2.52538 2.52538 z m 14.14214,4.66186 c 0,-14.47248 0.0104,-14.53785 2.58365,-16.22392 3.65638,-2.39574 7.76757,-1.70077 8.63992,1.46053 0.38328,1.38896 0.74219,8.54842 0.79756,15.90991 l 0.1007,13.38452 h 2.52538 2.52538 v -14.06882 c 0,-13.9956 0.0138,-14.07972 2.66161,-16.16244 3.34,-2.62725 7.05027,-2.68886 8.41453,-0.13973 0.57865,1.08122 1.04569,8.29989 1.04569,16.16244 v 14.20855 h 2.52538 2.52538 v -15.70753 c 0,-16.59608 -0.84494,-20.42739 -4.99481,-22.64833 -3.05547,-1.63523 -5.53768,-1.24182 -9.61268,1.52355 l -3.77774,2.56365 -2.48869,-2.68534 c -2.08322,-2.24784 -3.0746,-2.59026 -6.08496,-2.10175 -1.97795,0.32097 -4.44902,1.35533 -5.49129,2.29856 -1.74594,1.58006 -1.89501,1.58345 -1.89501,0.0432 0,-1.10981 -0.84893,-1.67179 -2.52539,-1.67179 h -2.52538 v 19.1929 19.1929 h 2.52538 2.52539 z M 332.1877,207.15331 c 0,-3.09781 -0.31267,-3.53554 -2.52538,-3.53554 -2.19788,0 -2.56661,0.50078 -2.84328,3.86148 -0.30455,3.69941 -0.19857,3.8478 2.52538,3.53554 2.51394,-0.2882 2.84328,-0.73547 2.84328,-3.86148 z m 131.27231,-24.4962 c -5.01473,-16.54858 -20.06143,-44.4459 -33.62845,-62.3488 -6.54897,-8.64195 -29.18419,-32.359548 -30.86404,-32.339912 -0.61595,0.0072 -10.19151,7.747477 -21.27904,17.200612 -11.08751,9.45314 -20.63345,16.9806 -21.2132,16.72769 -0.57974,-0.25292 -10.09593,-4.11722 -21.14709,-8.58734 l -20.09301,-8.1275 -10.21157,6.08423 -10.21156,6.08423 -4.54568,-4.96608 C 287.76624,109.6529 276.68103,97.820696 265.63256,86.090464 L 245.54444,64.76277 229.80376,81.157263 c -8.65739,9.016971 -20.07332,20.831677 -25.36875,26.254897 l -9.62806,9.86041 -9.0565,-6.04393 c -8.87144,-5.92042 -9.09851,-6.00619 -11.11168,-4.19757 -11.13861,10.00684 -31.4593,26.3487 -32.3025,25.9776 -12.3766,-5.44718 -54.459349,-21.71725 -55.118397,-21.30994 -1.76909,1.09336 -15.624549,20.16862 -20.483007,28.19961 -6.636365,10.96987 -12.80734,23.37122 -17.252365,34.6708 -2.020179,5.13544 -3.673052,9.56749 -3.673052,9.84899 0,0.2815 94.126341,0.51182 209.169651,0.51182 H 464.14875 Z M 97.327229,104.95748 c 1.051977,-0.64998 0.743143,-0.72868 -1.010152,-0.25742 l -2.525382,0.67878 2.448927,-2.65085 c 1.34691,-1.45797 2.231577,-2.65085 1.965926,-2.65085 -0.265651,0 -2.049521,1.64327 -3.964156,3.65172 -3.276041,3.43656 -3.332356,3.60792 -0.955773,2.90827 1.38896,-0.4089 3.207234,-1.16475 4.04061,-1.67965 z m 5.050761,-1.84988 c 0.83338,-0.53857 1.06066,-0.97922 0.50508,-0.97922 -0.55559,0 -1.69201,0.44065 -2.52538,0.97922 -0.833379,0.53856 -1.060663,0.97921 -0.50508,0.97921 0.55558,0 1.69201,-0.44065 2.52538,-0.97921 z m 3.15931,-9.848992 c 1.2565,-1.602159 1.22077,-1.637888 -0.38139,-0.381388 -0.97227,0.762507 -1.76777,1.558003 -1.76777,1.767767 0,0.83139 0.82953,0.296281 2.14916,-1.386379 z m 8.08122,-7.071068 c 1.2565,-1.602158 1.22077,-1.637887 -0.38139,-0.381388 -0.97227,0.762508 -1.76777,1.558003 -1.76777,1.767767 0,0.83139 0.82953,0.296281 2.14916,-1.386379 z m 281.14813,-2.035437 c -0.52781,-0.425011 -2.3096,-1.902359 -3.95954,-3.282996 -1.96867,-1.647352 -2.48954,-1.844982 -1.51523,-0.574924 1.39274,1.815495 1.31847,1.893944 -1.19941,1.266998 -1.47624,-0.367579 -3.5218,-0.969975 -4.54569,-1.338657 -1.02388,-0.368683 -1.59352,-0.367698 -1.26586,0.0022 0.63091,0.712205 10.85628,4.501007 12.48573,4.62633 0.60609,0.04662 0.60609,-0.210889 0,-0.698939 z M 119.67944,81.136777 c 1.2565,-1.602158 1.22077,-1.637887 -0.38139,-0.381388 -0.97227,0.762508 -1.76777,1.558003 -1.76777,1.767767 0,0.83139 0.82952,0.296281 2.14916,-1.386379 z m 4.04061,-3.030457 c 1.2565,-1.602159 1.22077,-1.637888 -0.38139,-0.381388 -0.97227,0.762507 -1.76777,1.558002 -1.76777,1.767767 0,0.831389 0.82953,0.29628 2.14916,-1.386379 z m 263.52096,0.376226 c 0,-0.209764 -0.79549,-1.005259 -1.76777,-1.767767 -1.60216,-1.256499 -1.63789,-1.22077 -0.38139,0.381388 1.31963,1.68266 2.14916,2.217769 2.14916,1.386379 z M 158.44146,57.741058 c 7.77817,-3.785322 15.27856,-7.402142 16.66752,-8.037376 l 2.52538,-1.154972 -2.52538,0.622724 c -7.8103,1.925913 -40.40531,19.495502 -47.57571,25.644596 -1.33477,1.144647 1.89156,-0.680416 7.1696,-4.055695 5.27805,-3.375278 15.96041,-9.233953 23.73859,-13.019277 z m 207.58635,6.511205 c 0,-0.258244 -1.02278,-0.965174 -2.27285,-1.570954 -2.18256,-1.057671 -2.19495,-1.039019 -0.312,0.469535 2.06097,1.651183 2.58485,1.874408 2.58485,1.101419 z M 343.80445,52.599968 c -0.83337,-0.538569 -1.9698,-0.979216 -2.52538,-0.979216 -0.55558,0 -0.3283,0.440647 0.50508,0.979216 0.83337,0.538569 1.96979,0.979216 2.52538,0.979216 0.55558,0 0.3283,-0.440647 -0.50508,-0.979216 z M 189.08373,45.003916 c 3.70335,-1.295301 6.24478,-2.388928 5.64761,-2.430283 -1.39799,-0.09681 -15.72082,4.764787 -16.50331,5.601719 -0.68953,0.737504 1.55213,0.08262 10.8557,-3.171436 z m 128.18318,-2.105622 c -0.33567,-0.335664 -1.20694,-0.371552 -1.93613,-0.07975 -0.80583,0.322467 -0.56648,0.561829 0.6103,0.6103 1.06486,0.04386 1.66149,-0.194886 1.32583,-0.530552 z M 199.07906,41.888142 c -0.33568,-0.335665 -1.20693,-0.371553 -1.93613,-0.07975 -0.80583,0.322467 -0.56648,0.56183 0.6103,0.610301 1.06486,0.04386 1.66149,-0.194887 1.32583,-0.530551 z m 4.04061,-1.010153 c -0.33568,-0.335665 -1.20693,-0.371552 -1.93613,-0.07975 -0.80583,0.322467 -0.56648,0.56183 0.6103,0.610301 1.06486,0.04386 1.66149,-0.194886 1.32583,-0.530551 z m 107.07617,0 c -0.33567,-0.335665 -1.20693,-0.371552 -1.93613,-0.07975 -0.80583,0.322467 -0.56648,0.56183 0.6103,0.610301 1.06486,0.04386 1.66149,-0.194886 1.32583,-0.530551 z M 207.16028,39.867836 c -0.33568,-0.335664 -1.20693,-0.371552 -1.93613,-0.07975 -0.80583,0.322467 -0.56648,0.56183 0.6103,0.610301 1.06486,0.04386 1.66149,-0.194887 1.32583,-0.530553 z m 97.98479,0 c -0.33566,-0.335664 -1.20693,-0.371552 -1.93612,-0.07975 -0.80583,0.322467 -0.56648,0.56183 0.6103,0.610301 1.06486,0.04386 1.66149,-0.194887 1.32582,-0.530553 z M 211.72701,38.79898 c -0.69448,-0.280229 -1.83091,-0.280229 -2.52539,0 -0.69448,0.280229 -0.12627,0.509507 1.26269,0.509507 1.38896,0 1.95718,-0.229278 1.2627,-0.509507 z m 88.89342,0 c -0.69448,-0.280229 -1.8309,-0.280229 -2.52538,0 -0.69448,0.280229 -0.12627,0.509507 1.26269,0.509507 1.38896,0 1.95717,-0.229278 1.26269,-0.509507 z m -83.84266,-1.010153 c -0.69448,-0.280228 -1.8309,-0.280228 -2.52538,0 -0.69448,0.28023 -0.12627,0.509507 1.26269,0.509507 1.38896,0 1.95717,-0.229277 1.26269,-0.509507 z m 78.7919,0 c -0.69448,-0.280228 -1.8309,-0.280228 -2.52538,0 -0.69448,0.28023 -0.12627,0.509507 1.26269,0.509507 1.38896,0 1.95717,-0.229277 1.26269,-0.509507 z m -73.2571,-0.951448 c -0.33568,-0.335665 -1.20693,-0.371552 -1.93613,-0.07975 -0.80583,0.322467 -0.56648,0.56183 0.6103,0.610301 1.06486,0.04386 1.66149,-0.194887 1.32583,-0.530551 z m 67.2154,-0.0523 c -0.6839,-0.276704 -2.0476,-0.293547 -3.03045,-0.03743 -0.98285,0.256118 -0.42329,0.482513 1.24346,0.503098 1.66676,0.02059 2.4709,-0.188964 1.78699,-0.465668 z m -59.599,-1.010152 c -0.6839,-0.276704 -2.04761,-0.293548 -3.03045,-0.03743 -0.98285,0.256118 -0.42329,0.482512 1.24346,0.503098 1.66676,0.02059 2.4709,-0.188964 1.78699,-0.465668 z m 52.01542,-0.03146 c -0.9658,-0.252835 -2.78408,-0.262008 -4.04061,-0.02038 -1.25654,0.241621 -0.46635,0.448485 1.75598,0.459698 2.22234,0.01121 3.25042,-0.186479 2.28463,-0.439312 z m -17.13065,-1.06852 c -5.38738,-0.181276 -14.47875,-0.182007 -20.20305,-0.0016 -5.72428,0.180383 -1.31642,0.328701 9.79526,0.329594 11.11168,8.93e-4 15.79519,-0.146694 10.40779,-0.32797 z"
                id="path4546"
                inkscape:connector-curvature="0"
                transform="matrix(0.26458333,0,0,0.26458333,0,161.53332)"/>
        <path
                style="fill:#ffffff;stroke:#ffffff;stroke-width:0.26726952;stroke-opacity:1"
                d="M 58.758949,290.76988 C 51.542264,289.61152 45.747416,287.72963 39.338977,284.46319 23.940532,276.61446 12.116135,261.86018 7.7048999,244.99073 5.4283374,236.2847 5.0989097,226.14498 6.8028282,217.22516 11.91206,190.47888 34.252799,169.93971 61.281426,167.13975 c 3.79499,-0.39313 12.570253,-0.16986 15.919119,0.40503 6.363306,1.09238 11.587786,2.78112 17.37252,5.6154 14.126215,6.92128 24.845295,18.61603 30.700275,33.49467 4.89605,12.44181 5.41525,28.09361 1.35865,40.95832 -6.31871,20.03859 -21.99657,35.47368 -41.947896,41.29836 -5.965651,1.74164 -8.24552,2.04453 -16.169807,2.14824 -5.513612,0.0722 -7.950885,-2.6e-4 -9.755338,-0.28989 z m 16.83798,-4.29596 c 6.02321,-0.81937 11.210774,-2.43229 17.105249,-5.31839 10.042882,-4.91726 17.749842,-11.72373 23.914332,-21.12014 1.19323,-1.81881 4.69082,-8.62985 5.17812,-10.08362 0.14898,-0.44443 -2.55262,-0.46772 -54.25315,-0.46772 H 13.131546 l 0.180487,0.71912 c 0.09927,0.39551 0.823615,2.04924 1.609659,3.67496 8.05134,16.65193 23.249377,28.42596 41.428527,32.09499 5.689206,1.14823 13.074714,1.3404 19.24671,0.5008 z m 17.878462,-38.74898 c 0.08923,-0.23252 0.162232,-0.83087 0.162232,-1.32967 0,-0.85787 0.04184,-0.89853 0.773967,-0.7521 1.48319,0.29663 2.664536,-1.9509 2.325513,-4.42434 -0.282245,-2.0592 -1.327531,-2.94643 -2.555979,-2.16948 -0.249409,0.15774 -0.519041,0.1424 -0.741449,-0.0422 -0.192228,-0.15954 -0.429157,-0.21042 -0.526505,-0.11307 -0.268129,0.26813 -0.436134,6.07419 -0.224727,7.76624 0.184703,1.4783 0.476644,1.87324 0.786948,1.0646 z m -53.988443,-2.40542 c 0.08923,-0.23252 0.162229,-1.01429 0.162229,-1.73726 0,-1.25896 0.03136,-1.31449 0.742339,-1.31449 1.562224,0 2.700126,-1.73592 2.352511,-3.58886 -0.24847,-1.32445 -1.011867,-1.86725 -2.643558,-1.87963 l -1.386734,-0.0105 -0.0813,3.34086 c -0.08496,3.49161 0.09264,5.61266 0.469982,5.61266 0.122267,0 0.295305,-0.19024 0.38453,-0.42276 z m 5.221565,-4.29941 c 0.01863,-3.75576 -0.08437,-4.63226 -0.544348,-4.63226 -0.282075,0 -0.327247,8.9095 -0.0466,9.19015 0.403532,0.40353 0.57281,-0.90209 0.590944,-4.55789 z m 3.751596,4.4661 c 0.25133,-0.15896 0.522319,-0.13969 0.755362,0.0537 0.656389,0.54475 0.874418,-0.34222 0.705794,-2.87125 -0.08821,-1.32298 -0.220789,-2.62279 -0.294619,-2.88846 -0.339389,-1.22125 -3.258108,-1.13353 -3.291639,0.0989 -0.0021,0.0827 0.567198,0.14287 1.265439,0.13363 1.079101,-0.0143 1.281195,0.0647 1.34729,0.5262 0.06304,0.44024 -0.150291,0.60399 -1.127315,0.86531 -0.914326,0.24454 -1.309119,0.52351 -1.636308,1.15622 -0.944451,1.82637 0.690729,3.92832 2.275996,2.9257 z m 3.746646,-2.52921 c 0.0044,-2.25544 0.380888,-3.09465 1.388477,-3.09465 0.687824,0 1.020242,1.02398 1.025131,3.15782 0.0021,0.98266 0.11426,1.9608 0.248904,2.17363 0.413203,0.65313 0.636903,-0.88433 0.474155,-3.25877 -0.11589,-1.69078 -0.265168,-2.26402 -0.703811,-2.70266 -0.492066,-0.49207 -0.655288,-0.51952 -1.405442,-0.23637 -0.572982,0.21628 -0.953776,0.23317 -1.172078,0.052 -0.226846,-0.18826 -0.372562,-0.14014 -0.488207,0.16122 -0.217686,0.56729 -0.212815,5.56254 0.006,6.13272 0.335084,0.87321 0.622707,-0.22102 0.626891,-2.38493 z m 9.998104,2.36252 c 0.08923,-0.23252 0.162229,-1.18404 0.162229,-2.11447 0,-1.33892 0.195082,-2.1475 0.935442,-3.87724 1.003165,-2.34374 1.085096,-2.67269 0.665679,-2.67269 -0.148371,0 -0.65527,0.78176 -1.126443,1.73725 -0.471172,0.95549 -0.929021,1.73725 -1.017439,1.73725 -0.08842,0 -0.503105,-0.71626 -0.921523,-1.5917 -0.418417,-0.87542 -0.921615,-1.65341 -1.118219,-1.72886 -0.528672,-0.20287 -0.452284,0.14527 0.57798,2.63413 0.712557,1.72135 0.935445,2.64028 0.935445,3.85668 0,1.6541 0.172527,2.44241 0.534537,2.44241 0.115544,0 0.283086,-0.19024 0.372312,-0.42276 z m 5.429443,0.0198 c 0.831937,-0.58271 1.298122,-2.85505 0.893789,-4.35662 -0.356548,-1.32413 -1.108356,-2.18943 -1.902262,-2.18943 -1.43719,0 -2.120585,1.1813 -2.120585,3.6656 0,2.67462 1.479052,4.03616 3.129058,2.88046 z m 4.890378,0.13497 c 0.345924,-0.18513 0.557411,-0.17631 0.684011,0.0285 0.128106,0.20728 0.252421,0.18739 0.413033,-0.0661 0.26587,-0.4196 0.321361,-5.58058 0.06713,-6.2431 -0.337399,-0.87925 -0.62272,0.22736 -0.626888,2.43137 -0.0034,1.79297 -0.09224,2.24332 -0.518747,2.6293 -0.283057,0.25617 -0.734073,0.42383 -1.00226,0.37259 -0.420809,-0.0804 -0.510487,-0.46959 -0.654632,-2.84087 -0.174572,-2.87186 -0.258249,-3.17441 -0.787506,-2.84731 -0.495615,0.3063 -0.09161,5.70372 0.473686,6.32836 0.481388,0.53193 1.202441,0.60847 1.952178,0.20722 z m 3.736332,-2.45243 c 0.0044,-2.18672 0.338042,-2.89224 1.367917,-2.89224 0.60589,0 0.972778,-0.71027 0.573257,-1.10979 -0.18455,-0.18454 -0.531421,-0.13791 -1.078508,0.14499 -0.741916,0.38366 -0.820391,0.38074 -0.98053,-0.0366 -0.149471,-0.38951 -0.20923,-0.39802 -0.42287,-0.0602 -0.279795,0.44242 -0.35042,5.58523 -0.08616,6.27389 0.331769,0.86457 0.622687,-0.21209 0.626891,-2.32007 z m 8.127217,2.29766 c 0.08923,-0.23252 0.162229,-2.03659 0.162229,-4.00905 v -3.58627 h 1.069078 c 0.890897,0 1.069078,-0.0891 1.069078,-0.53454 0,-0.4989 -0.178181,-0.53454 -2.672696,-0.53454 -2.494513,0 -2.672694,0.0356 -2.672694,0.53454 0,0.44545 0.178181,0.53454 1.069078,0.53454 h 1.069078 v 3.17382 c 0,3.2542 0.177033,4.84426 0.539353,4.84426 0.112898,0 0.27827,-0.19024 0.367496,-0.42276 z m 3.098101,-2.29766 c 0.0044,-2.18672 0.338042,-2.89224 1.367917,-2.89224 0.605893,0 0.97278,-0.71027 0.57326,-1.10979 -0.18455,-0.18454 -0.531424,-0.13791 -1.078508,0.14499 -0.724562,0.37469 -0.822487,0.37528 -0.964266,0.006 -0.08679,-0.22618 -0.278924,-0.33638 -0.426964,-0.24489 -0.300106,0.18548 -0.380791,6.34855 -0.08696,6.64238 0.381815,0.38182 0.611576,-0.56865 0.615521,-2.54626 z m 3.583636,2.29766 c 0.08923,-0.23252 0.162229,-1.6058 0.162229,-3.05174 0,-2.62643 -0.13226,-3.47451 -0.541859,-3.47451 -0.349022,0 -0.60603,3.32007 -0.403447,5.21176 0.18193,1.69882 0.457859,2.162 0.783077,1.31449 z m 0.07247,-7.74693 c 0.22276,-0.5805 -0.342757,-1.12641 -0.747538,-0.72162 -0.342117,0.34212 -0.130175,1.1405 0.302757,1.1405 0.156224,0 0.356378,-0.1885 0.444781,-0.41887 z m -31.775844,-9.17044 c 0.415441,-0.22234 0.595069,-0.56439 0.595069,-1.13315 0,-0.44808 -0.09021,-0.76825 -0.200454,-0.7115 -0.110249,0.0567 -0.663929,0.31414 -1.2304,0.57197 -1.860729,0.84691 -3.302198,0.0614 -3.571475,-1.94621 l -0.146177,-1.08982 h 0.931429 c 0.512286,0 1.6707,-0.0773 2.574252,-0.17171 1.623404,-0.16968 1.642804,-0.18153 1.641333,-1.00226 -0.0024,-1.32492 -0.524936,-2.85126 -1.211062,-3.53739 -0.939474,-0.93947 -2.724944,-0.89008 -3.649273,0.10096 -0.377037,0.40425 -0.828001,1.01173 -1.002139,1.34997 -0.471008,0.91484 -0.655661,4.0355 -0.313372,5.29599 0.688686,2.53609 3.188729,3.55413 5.582269,2.27315 z m 47.949898,0.39043 c 0.9586,-0.20925 1.55549,-0.8489 1.55549,-1.66691 0,-0.36924 -0.0902,-0.62492 -0.20045,-0.56817 -1.48879,0.76636 -2.36401,1.01798 -3.03121,0.87144 -1.01729,-0.22343 -1.84646,-1.31738 -1.84646,-2.4361 v -0.8994 h 2.53906 2.53906 l -0.002,-1.00226 c -0.004,-2.73987 -1.12596,-4.34313 -3.03929,-4.34313 -2.1356,0 -3.3706,1.86064 -3.3706,5.07812 0,2.00886 0.38638,3.23541 1.29274,4.10376 0.72972,0.69911 2.00906,1.23931 2.57969,1.08928 0.147,-0.0386 0.5896,-0.14064 0.98357,-0.22663 z m -77.613074,-2.49417 0.07685,-2.47224 1.125866,-10e-4 c 2.470332,-0.002 3.803374,-1.74261 3.613898,-4.7183 -0.163816,-2.57261 -1.412896,-3.56599 -4.48397,-3.56599 h -1.612202 v 6.70033 6.70033 l 0.601359,-0.0854 c 0.56756,-0.0806 0.605673,-0.22435 0.678203,-2.55765 z m 11.282106,2.26176 c 0.469831,-0.23643 0.693259,-0.59525 0.752674,-1.20877 l 0.0845,-0.87252 -1.015984,0.54453 c -0.55879,0.29949 -1.286478,0.54453 -1.617078,0.54453 -0.908166,0 -2.162008,-1.31078 -2.364864,-2.47224 l -0.175046,-1.00226 h 2.739239 2.739237 l -0.175091,-1.48977 c -0.19563,-1.6645 -0.98602,-3.43568 -1.64623,-3.68902 -0.900004,-0.34537 -2.464077,-0.16064 -3.139709,0.37081 -0.952384,0.74915 -1.628934,2.69 -1.618703,4.64367 0.01585,3.02715 1.414421,4.97824 3.56344,4.97122 0.662996,-0.002 1.506122,-0.15525 1.873618,-0.34018 z m 4.009043,-3.34003 V 221.536 l 0.734992,-0.42337 c 0.404246,-0.23286 1.363342,-0.50307 2.131327,-0.60047 l 1.396336,-0.17708 0.07365,4.21779 c 0.07238,4.14504 0.08402,4.21927 0.675002,4.3032 l 0.601358,0.0854 v -4.2949 -4.2949 h 1.069078 c 0.951781,0 1.069078,-0.0707 1.069078,-0.64469 0,-0.54656 -0.166931,-0.67288 -1.096851,-0.82999 -1.060765,-0.17922 -1.091422,-0.21296 -0.931844,-1.02575 0.19926,-1.01491 0.856004,-1.55681 1.760109,-1.45234 0.556572,0.0643 0.669491,-0.0353 0.669491,-0.59082 0,-0.61284 -0.09871,-0.66817 -1.19207,-0.66817 -1.057283,0 -1.261263,0.10268 -1.804069,0.90815 -0.3366,0.49948 -0.612,1.18245 -0.612,1.51771 0,0.91861 -0.701617,1.44955 -1.915538,1.44955 -0.650153,0 -1.374974,0.21321 -1.83261,0.53907 l -0.757068,0.53908 -0.086,-0.60589 c -0.05664,-0.39905 -0.268489,-0.6059 -0.620541,-0.6059 -0.511334,0 -0.537723,0.20264 -0.607915,4.66783 -0.04035,2.5673 -0.01405,4.82239 0.05843,5.0113 0.07249,0.18892 0.376121,0.34348 0.674733,0.34348 0.519464,0 0.542924,-0.15921 0.542924,-3.68415 z m 21.198681,3.37687 c 0.321083,-0.169 0.672148,-0.43961 0.780146,-0.60136 0.258402,-0.38699 0.261749,-1.56875 0.0041,-1.44527 -0.11025,0.0528 -0.648285,0.32416 -1.195634,0.60294 -0.823928,0.41965 -1.113774,0.45284 -1.684324,0.19288 -1.954546,-0.89055 -1.94944,-6.25077 0.0066,-6.99448 0.642384,-0.24423 1.271066,-0.0816 2.873293,0.74312 0.110249,0.0567 0.200451,-0.26457 0.200451,-0.71404 0,-1.61065 -2.73944,-2.21676 -4.255064,-0.94144 -1.573821,1.32428 -2.092759,5.39713 -0.965427,7.57715 0.858094,1.65937 2.746959,2.36416 4.235802,1.5805 z m 6.195687,-0.22487 c 0.252191,-0.79458 -0.05251,-1.07147 -1.179078,-1.07147 h -1.014656 l -0.170384,-1.80407 c -0.09371,-0.99224 -0.171238,-2.54917 -0.172283,-3.45986 l -0.0019,-1.65579 1.269531,-0.0815 c 1.154261,-0.0741 1.269529,-0.14213 1.269529,-0.74963 0,-0.60751 -0.115268,-0.67557 -1.269529,-0.74964 l -1.269531,-0.0815 v -1.3217 c -2.9e-5,-1.12184 -0.07707,-1.32171 -0.509487,-1.32171 -0.407633,0 -0.545645,0.2631 -0.690499,1.31632 -0.103262,0.7508 -0.343689,1.37873 -0.55962,1.4616 -0.476279,0.18276 -0.488151,0.8161 -0.024,1.28025 0.230299,0.2303 0.44531,1.63703 0.613436,4.01342 0.304044,4.29751 0.535665,4.75735 2.396268,4.75735 0.906833,0 1.178208,-0.11005 1.312175,-0.53215 z m 9.066065,0.36992 c 0.367231,-0.14092 0.422762,-0.91157 0.422762,-5.86718 v -5.70495 l 1.670436,-0.0796 c 1.604981,-0.0765 1.673775,-0.10865 1.755685,-0.82163 l 0.08525,-0.74205 -4.094295,0.0739 -4.094294,0.0739 v 0.66817 c 0,0.63296 0.08804,0.67237 1.670436,0.74775 l 1.670434,0.0796 v 5.689 c 0,4.91975 0.07887,6.04536 0.42359,6.04536 0.03698,0 0.257474,-0.073 0.489995,-0.16223 z m 6.241774,-4.84907 c -0.06978,-4.80889 -0.09431,-5.01131 -0.607255,-5.01131 -0.511334,0 -0.537726,0.20264 -0.607915,4.66783 -0.04036,2.5673 -0.01405,4.82239 0.05843,5.0113 0.07249,0.18892 0.378772,0.34348 0.680627,0.34348 0.53666,0 0.547214,-0.11109 0.476113,-5.0113 z m 3.737769,1.13589 c 0.06301,-3.43128 0.115366,-3.78058 0.630965,-4.20949 0.761421,-0.63341 2.013127,-0.60734 2.364521,0.0492 0.153286,0.28642 0.276672,2.20179 0.276672,4.2949 0,3.76499 0.0021,3.77765 0.601355,3.69253 0.586849,-0.0833 0.603121,-0.17567 0.674434,-3.82718 0.06851,-3.50793 0.11027,-3.77063 0.668173,-4.20355 0.697159,-0.54098 1.94006,-0.61809 2.249758,-0.13958 0.118925,0.18375 0.276362,2.07802 0.349861,4.2095 0.132082,3.83037 0.141002,3.87645 0.76751,3.96507 l 0.63387,0.0897 -0.123,-4.23235 c -0.0779,-2.68107 -0.25027,-4.49686 -0.47025,-4.95403 -0.647086,-1.34477 -2.21515,-1.40147 -3.868071,-0.13985 -0.474025,0.36181 -0.56592,0.3403 -1.021657,-0.23907 -0.583573,-0.7419 -2.143109,-0.86439 -2.976366,-0.23378 -0.448744,0.33961 -0.548225,0.33339 -0.829974,-0.0519 -0.188699,-0.25806 -0.500571,-0.36854 -0.759672,-0.26911 -0.386093,0.14816 -0.439555,0.77333 -0.439555,5.14013 v 4.97147 l 0.601358,-0.0854 c 0.587095,-0.0834 0.602986,-0.17415 0.670068,-3.82718 z m -3.676851,-8.71743 c 0,-1.00923 -0.975452,-1.10309 -1.222782,-0.11766 -0.213019,0.84874 0.02352,1.20191 0.688512,1.02801 0.378349,-0.0989 0.53427,-0.36462 0.53427,-0.91035 z m 34.74504,-6.23581 c 0,-0.66572 -1.55968,-4.37962 -3.12315,-7.43681 -2.73104,-5.34025 -5.82512,-9.64379 -10.038,-13.9618 l -3.81047,-3.90554 -5.44107,4.56024 c -2.992598,2.50814 -5.493162,4.56025 -5.556807,4.56025 -0.06365,0 -2.50394,-0.96217 -5.422869,-2.13816 -2.918928,-1.17598 -5.446373,-2.13815 -5.616553,-2.13815 -0.170178,0 -1.433386,0.66149 -2.807129,1.46998 -1.37374,0.80849 -2.560127,1.46998 -2.636414,1.46998 -0.07629,0 -2.99462,-3.03685 -6.485189,-6.74855 -3.490566,-3.71171 -6.4238,-6.78096 -6.518301,-6.82057 -0.0945,-0.0396 -3.111447,2.98521 -6.704327,6.72183 -3.592881,3.73662 -6.623897,6.80587 -6.735586,6.82057 -0.111691,0.0147 -1.232995,-0.65867 -2.491785,-1.49638 -1.627433,-1.08304 -2.391156,-1.44984 -2.643272,-1.26953 -0.195011,0.13946 -2.08049,1.70488 -4.189955,3.4787 -2.109464,1.77382 -3.97819,3.30971 -4.152722,3.4131 -0.17453,0.10339 -2.459683,-0.66824 -5.078122,-1.71473 -2.618433,-1.04649 -5.898229,-2.32924 -7.288436,-2.85056 l -2.527648,-0.94785 -1.043653,1.17471 c -1.580486,1.77895 -4.977857,6.9904 -6.525504,10.00989 -1.446676,2.8225 -3.278084,7.15449 -3.278084,7.75394 0,0.29013 9.69546,0.35603 55.057523,0.37422 48.768003,0.0195 55.057523,-0.0237 55.057523,-0.37878 z M 103.9275,183.46848 c -0.0908,-0.147 -0.36856,-0.26543 -0.61713,-0.26318 -0.38949,0.004 -0.39654,0.0399 -0.051,0.26318 0.52341,0.33826 0.87722,0.33826 0.66817,0 z"
                id="path4548"
                inkscape:connector-curvature="0"/>
        <path
                style="fill:#ffffff;stroke:#000000;stroke-width:1.3;stroke-linecap:butt;stroke-linejoin:miter;stroke-opacity:1;stroke-miterlimit:4;stroke-dasharray:none"
                d="m 51.542672,192.56169 5.118467,5.2813 c 0,0 4.58393,5.81585 -0.267269,0.26727 -4.851198,-5.54857 -2.405427,2.40543 -2.405427,2.40543 0,0 -7.216275,-3.74178 -6.681737,0.26727 0.53454,4.00904 -9.354434,-4.00905 -9.354434,-4.00905 l 8.819896,-7.48354 z"
                id="path4550"
                inkscape:connector-curvature="0"/>
        <path
                style="fill:#ffffff;fill-opacity:1;stroke:#000000;stroke-width:1.3;stroke-linecap:butt;stroke-linejoin:miter;stroke-miterlimit:4;stroke-dasharray:none;stroke-opacity:1"
                d="m 76.871964,193.03055 c 6.918468,6.57955 7.059704,4.44707 9.118545,3.78067 2.058839,-0.6664 3.957982,2.66559 4.57183,1.3328 0.613846,-1.3328 0.09016,-5.06462 0.09016,-5.06462 l -8.32274,-3.25986 z"
                id="path4568"
                inkscape:connector-curvature="0"/>
        <path
                style="fill:#ffffff;stroke:#000000;stroke-width:1.3;stroke-linecap:butt;stroke-linejoin:miter;stroke-miterlimit:4;stroke-dasharray:none;stroke-opacity:1"
                d="m 54.790252,190.34871 c 2.405428,4.00904 2.004523,5.07812 3.34087,3.74177 1.336347,-1.33635 3.608139,-3.60814 3.875407,-2.6727 0.267269,0.93545 -3.741771,7.75082 2.138157,4.81086 5.87993,-2.93997 5.612661,-5.34539 5.479026,-3.87541 -0.133636,1.46998 4.142676,1.46998 4.543581,0.4009 0.400904,-1.06907 -0.267269,-3.20723 -0.267269,-3.20723 l -8.933058,-9.82009 z"
                id="path4574"
                inkscape:connector-curvature="0"/>
        <text
                xml:space="preserve"
                style="font-style:normal;font-weight:normal;font-size:12.11374283px;line-height:1.25;font-family:sans-serif;text-align:center;letter-spacing:0.00605688px;word-spacing:0px;text-anchor:middle;fill:#000000;fill-opacity:1;stroke:none;stroke-width:0.30284357"
                x="78.103615"
                y="200.10094"
                id="text31"
                transform="scale(0.87366336,1.1446056)"><tspan
         sodipodi:role="line"
         x="78.106644"
         y="200.10094"
         style="font-size:16.1516571px;letter-spacing:0.01322917px;stroke-width:0.30284357;-inkscape-font-specification:sans-serif;font-family:sans-serif;font-weight:normal;font-style:normal;font-stretch:normal;font-variant:normal"
         id="tspan33">Perfect Time</tspan></text>
        <text
                xml:space="preserve"
                style="font-style:normal;font-weight:normal;font-size:11.7040205px;line-height:1.25;font-family:sans-serif;text-align:center;letter-spacing:0px;word-spacing:0px;text-anchor:middle;fill:#000000;fill-opacity:1;stroke:none;stroke-width:0.29260051"
                x="74.823257"
                y="220.89928"
                id="text39"
                transform="scale(0.90424767,1.1058917)"><tspan
         sodipodi:role="line"
         id="tspan37"
         x="74.823257"
         y="220.89928"
         style="font-size:9.87777778px;stroke-width:0.29260051">Plan Your Trip</tspan></text>
    </g>
</svg>
