<?xml version="1.0" encoding="UTF-8" standalone="no"?>
<!DOCTYPE svg PUBLIC "-//W3C//DTD SVG 1.1//EN"
 "http://www.w3.org/Graphics/SVG/1.1/DTD/svg11.dtd">
<!-- Generated by graphviz version 2.38.0 (20140413.2041)
 -->
<!-- Title: G Pages: 1 -->
<svg width="7116pt" height="681pt"
 viewBox="0.00 0.00 7116.00 681.40" xmlns="http://www.w3.org/2000/svg" xmlns:xlink="http://www.w3.org/1999/xlink">
<g id="graph0" class="graph" transform="scale(1 1) rotate(0) translate(4 677.4)">
<title>G</title>
<polygon fill="white" stroke="none" points="-4,4 -4,-677.4 7112,-677.4 7112,4 -4,4"/>
<g id="clust1" class="cluster"><title>cluster_0</title>
<polygon fill="lightgray" stroke="lightgrey" points="1167,-335 1167,-496 2336,-496 2336,-335 1167,-335"/>
<text text-anchor="middle" x="1751.92" y="-465" font-family="Times,serif" font-size="30.00">C:/Users/Service/Desktop/PerfectTimeWorkspace/PerfectTime/src/components/SignInButton.tsx</text>
</g>
<g id="clust2" class="cluster"><title>cluster_1</title>
<polygon fill="lightgray" stroke="lightgrey" points="2344,-335 2344,-496 3488,-496 3488,-335 2344,-335"/>
<text text-anchor="middle" x="2916.39" y="-465" font-family="Times,serif" font-size="30.00">C:/Users/Service/Desktop/PerfectTimeWorkspace/PerfectTime/src/components/MenuItems.tsx</text>
</g>
<g id="clust3" class="cluster"><title>cluster_2</title>
<polygon fill="lightgray" stroke="lightgrey" points="3496,-326.6 3496,-504.4 4685,-504.4 4685,-326.6 3496,-326.6"/>
<text text-anchor="middle" x="4090.92" y="-473.4" font-family="Times,serif" font-size="30.00">C:/Users/Service/Desktop/PerfectTimeWorkspace/PerfectTime/src/components/SignOutButton.tsx</text>
</g>
<g id="clust4" class="cluster"><title>cluster_3</title>
<polygon fill="lightgray" stroke="lightgrey" points="5929,-351.8 5929,-640.2 7100,-640.2 7100,-351.8 5929,-351.8"/>
<text text-anchor="middle" x="6514.73" y="-609.2" font-family="Times,serif" font-size="30.00">C:/Users/Service/Desktop/PerfectTimeWorkspace/PerfectTime/src/components/ActivitiesList.js</text>
</g>
<g id="clust5" class="cluster"><title>cluster_4</title>
<polygon fill="lightgray" stroke="lightgrey" points="8,-167.8 8,-665.4 1159,-665.4 1159,-167.8 8,-167.8"/>
<text text-anchor="middle" x="583.702" y="-634.4" font-family="Times,serif" font-size="30.00">C:/Users/Service/Desktop/PerfectTimeWorkspace/PerfectTime/src/components/AppWrapper.tsx</text>
</g>
<g id="clust6" class="cluster"><title>cluster_5</title>
<polygon fill="lightgray" stroke="lightgrey" points="4693,-8 4693,-470.8 5921,-470.8 5921,-8 4693,-8"/>
<text text-anchor="middle" x="5307.05" y="-439.8" font-family="Times,serif" font-size="30.00">C:/Users/Service/Desktop/PerfectTimeWorkspace/PerfectTime/src/components/withAuthorization.tsx</text>
</g>
<!-- 0 -->
<g id="node1" class="node"><title>0</title>
<polygon fill="lightyellow" stroke="black" points="1345.96,-368.7 1345.96,-418.3 1498.04,-418.3 1498.04,-368.7 1345.96,-368.7"/>
<text text-anchor="middle" x="1422" y="-401.7" font-family="Times,serif" font-size="14.00">«GLOBAL»</text>
<polyline fill="none" stroke="black" points="1345.96,-393.5 1498.04,-393.5 "/>
<text text-anchor="start" x="1353.96" y="-376.9" font-family="Times,serif" font-size="14.00">&#45;SignInButton : variable</text>
</g>
<!-- 12 -->
<g id="node2" class="node"><title>12</title>
<polygon fill="lightblue" stroke="black" points="1175.08,-343.5 1175.08,-443.5 1338.92,-443.5 1338.92,-343.5 1175.08,-343.5"/>
<text text-anchor="middle" x="1257" y="-426.9" font-family="Times,serif" font-size="14.00">«FUNCTION»</text>
<text text-anchor="middle" x="1257" y="-410.1" font-family="Times,serif" font-size="14.00"> function</text>
<polyline fill="none" stroke="black" points="1175.08,-401.9 1338.92,-401.9 "/>
<text text-anchor="start" x="1183.08" y="-385.3" font-family="Times,serif" font-size="14.00">&#45;color : string = secondary</text>
<text text-anchor="start" x="1183.08" y="-368.5" font-family="Times,serif" font-size="14.00">&#45;to : binaryexpression</text>
<text text-anchor="start" x="1183.08" y="-351.7" font-family="Times,serif" font-size="14.00">&#45;type : string = button</text>
</g>
<!-- 1 -->
<g id="node3" class="node"><title>1</title>
<polygon fill="lightyellow" stroke="black" points="2352.09,-343.5 2352.09,-443.5 2539.91,-443.5 2539.91,-343.5 2352.09,-343.5"/>
<text text-anchor="middle" x="2446" y="-426.9" font-family="Times,serif" font-size="14.00">«GLOBAL»</text>
<polyline fill="none" stroke="black" points="2352.09,-418.7 2539.91,-418.7 "/>
<text text-anchor="start" x="2360.09" y="-402.1" font-family="Times,serif" font-size="14.00">&#45;className : binaryexpression</text>
<text text-anchor="start" x="2360.09" y="-385.3" font-family="Times,serif" font-size="14.00">&#45;menuItems : variable</text>
<text text-anchor="start" x="2360.09" y="-368.5" font-family="Times,serif" font-size="14.00">&#45;primary : binaryexpression</text>
<text text-anchor="start" x="2360.09" y="-351.7" font-family="Times,serif" font-size="14.00">&#45;to</text>
</g>
<!-- 2 -->
<g id="node4" class="node"><title>2</title>
<polygon fill="lightyellow" stroke="black" points="3679.29,-368.7 3679.29,-418.3 3886.71,-418.3 3886.71,-368.7 3679.29,-368.7"/>
<text text-anchor="middle" x="3783" y="-401.7" font-family="Times,serif" font-size="14.00">«GLOBAL»</text>
<polyline fill="none" stroke="black" points="3679.29,-393.5 3886.71,-393.5 "/>
<text text-anchor="start" x="3687.29" y="-376.9" font-family="Times,serif" font-size="14.00">&#45;SignOutButton : variable = props</text>
</g>
<!-- 11 -->
<g id="node5" class="node"><title>11</title>
<polygon fill="lightblue" stroke="black" points="3503.59,-335.1 3503.59,-451.9 3672.41,-451.9 3672.41,-335.1 3503.59,-335.1"/>
<text text-anchor="middle" x="3588" y="-435.3" font-family="Times,serif" font-size="14.00">«FUNCTION»</text>
<text text-anchor="middle" x="3588" y="-418.5" font-family="Times,serif" font-size="14.00"> function</text>
<polyline fill="none" stroke="black" points="3503.59,-410.3 3672.41,-410.3 "/>
<text text-anchor="start" x="3511.59" y="-393.7" font-family="Times,serif" font-size="14.00">&#45;SignOutButton.propTypes</text>
<text text-anchor="start" x="3511.59" y="-376.9" font-family="Times,serif" font-size="14.00">&#45;color : string = secondary</text>
<text text-anchor="start" x="3511.59" y="-360.1" font-family="Times,serif" font-size="14.00">&#45;onClick</text>
<text text-anchor="start" x="3511.59" y="-343.3" font-family="Times,serif" font-size="14.00">&#45;type : string = button</text>
</g>
<!-- 3 -->
<g id="node6" class="node"><title>3</title>
<polygon fill="lightyellow" stroke="black" points="6911.46,-538.1 6911.46,-587.7 7074.54,-587.7 7074.54,-538.1 6911.46,-538.1"/>
<text text-anchor="middle" x="6993" y="-571.1" font-family="Times,serif" font-size="14.00">«GLOBAL»</text>
<polyline fill="none" stroke="black" points="6911.46,-562.9 7074.54,-562.9 "/>
<text text-anchor="start" x="6919.46" y="-546.3" font-family="Times,serif" font-size="14.00">&#45;styles : variable = themes</text>
</g>
<!-- 6 -->
<g id="node7" class="node"><title>6</title>
<polygon fill="lightblue" stroke="black" points="6776.96,-542.1 6776.96,-583.7 6887.04,-583.7 6887.04,-542.1 6776.96,-542.1"/>
<text text-anchor="middle" x="6832" y="-567.1" font-family="Times,serif" font-size="14.00">«FUNCTION»</text>
<text text-anchor="middle" x="6832" y="-550.3" font-family="Times,serif" font-size="14.00"> function</text>
</g>
<!-- 7 -->
<g id="node8" class="node"><title>7</title>
<polygon fill="khaki" stroke="black" points="6640.14,-542.1 6640.14,-583.7 6735.86,-583.7 6735.86,-542.1 6640.14,-542.1"/>
<text text-anchor="middle" x="6688" y="-567.1" font-family="Times,serif" font-size="14.00">«CLASS»</text>
<text text-anchor="middle" x="6688" y="-550.3" font-family="Times,serif" font-size="14.00"> ActivitiesList</text>
</g>
<!-- 8 -->
<g id="node9" class="node"><title>8</title>
<polygon fill="lightblue" stroke="black" points="6607.88,-360.3 6607.88,-426.7 6768.12,-426.7 6768.12,-360.3 6607.88,-360.3"/>
<text text-anchor="middle" x="6688" y="-410.1" font-family="Times,serif" font-size="14.00">«FUNCTION»</text>
<text text-anchor="middle" x="6688" y="-393.3" font-family="Times,serif" font-size="14.00"> render()</text>
<polyline fill="none" stroke="black" points="6607.88,-385.1 6768.12,-385.1 "/>
<text text-anchor="start" x="6615.88" y="-368.5" font-family="Times,serif" font-size="14.00">&#45;ActivitiesList.propTypes</text>
</g>
<!-- 7&#45;&gt;8 -->
<g id="edge1" class="edge"><title>7&#45;&gt;8</title>
<path fill="none" stroke="black" d="M6688,-529.941C6688,-500.388 6688,-456.675 6688,-426.962"/>
<polygon fill="black" stroke="black" points="6688,-530.04 6692,-536.04 6688,-542.04 6684,-536.04 6688,-530.04"/>
</g>
<!-- 9 -->
<g id="node10" class="node"><title>9</title>
<polygon fill="lightblue" stroke="black" points="6455.96,-542.1 6455.96,-583.7 6566.04,-583.7 6566.04,-542.1 6455.96,-542.1"/>
<text text-anchor="middle" x="6511" y="-567.1" font-family="Times,serif" font-size="14.00">«FUNCTION»</text>
<text text-anchor="middle" x="6511" y="-550.3" font-family="Times,serif" font-size="14.00"> function</text>
</g>
<!-- 10 -->
<g id="node11" class="node"><title>10</title>
<polygon fill="lightblue" stroke="black" points="6204.96,-542.1 6204.96,-583.7 6315.04,-583.7 6315.04,-542.1 6204.96,-542.1"/>
<text text-anchor="middle" x="6260" y="-567.1" font-family="Times,serif" font-size="14.00">«FUNCTION»</text>
<text text-anchor="middle" x="6260" y="-550.3" font-family="Times,serif" font-size="14.00"> function</text>
</g>
<!-- 4 -->
<g id="node12" class="node"><title>4</title>
<polygon fill="lightyellow" stroke="black" points="927.142,-538.1 927.142,-587.7 1150.86,-587.7 1150.86,-538.1 927.142,-538.1"/>
<text text-anchor="middle" x="1039" y="-571.1" font-family="Times,serif" font-size="14.00">«GLOBAL»</text>
<polyline fill="none" stroke="black" points="927.142,-562.9 1150.86,-562.9 "/>
<text text-anchor="start" x="935.142" y="-546.3" font-family="Times,serif" font-size="14.00">&#45;withAppWrapper : variable = Component</text>
</g>
<!-- 4&#45;&gt;0 -->
<g id="edge10" class="edge"><title>4&#45;&gt;0</title>
<path fill="none" stroke="black" d="M1158.64,-548.325C1229.66,-538.527 1311.61,-523.645 1342,-504.4 1343.28,-503.588 1344.55,-502.748 1345.8,-501.881"/>
<polygon fill="black" stroke="black" points="1348,-504.609 1353.87,-495.793 1343.78,-499.021 1348,-504.609"/>
</g>
<!-- 4&#45;&gt;1 -->
<g id="edge9" class="edge"><title>4&#45;&gt;1</title>
<path fill="none" stroke="black" d="M1158.82,-561.545C1459.79,-559.954 2231.11,-551.294 2337,-504.4 2339.68,-503.213 2342.33,-501.927 2344.95,-500.554"/>
<polygon fill="black" stroke="black" points="2346.76,-503.55 2353.72,-495.56 2343.3,-497.466 2346.76,-503.55"/>
</g>
<!-- 4&#45;&gt;2 -->
<g id="edge11" class="edge"><title>4&#45;&gt;2</title>
<path fill="none" stroke="black" d="M1158.67,-561.795C1647.9,-561.054 3478.74,-555.099 3665.26,-507.534"/>
<polygon fill="black" stroke="black" points="3666.55,-510.795 3675,-504.4 3664.41,-504.132 3666.55,-510.795"/>
</g>
<!-- 5 -->
<g id="node23" class="node"><title>5</title>
<polygon fill="lightyellow" stroke="black" points="4827.85,-368.7 4827.85,-418.3 5102.15,-418.3 5102.15,-368.7 4827.85,-368.7"/>
<text text-anchor="middle" x="4965" y="-401.7" font-family="Times,serif" font-size="14.00">«GLOBAL»</text>
<polyline fill="none" stroke="black" points="4827.85,-393.5 5102.15,-393.5 "/>
<text text-anchor="start" x="4835.85" y="-376.9" font-family="Times,serif" font-size="14.00">&#45;withAuthorization : variable = authCondition</text>
</g>
<!-- 4&#45;&gt;5 -->
<g id="edge12" class="edge"><title>4&#45;&gt;5</title>
<path fill="none" stroke="black" d="M1158.7,-562.22C1783.36,-563.621 4647.35,-566.617 4824,-504.4 4842.39,-497.922 4860.25,-488.004 4876.73,-476.725"/>
<polygon fill="black" stroke="black" points="4879.08,-479.35 4885.21,-470.713 4875.03,-473.637 4879.08,-479.35"/>
</g>
<!-- 21 -->
<g id="node13" class="node"><title>21</title>
<polygon fill="lightblue" stroke="black" points="423.926,-512.9 423.926,-612.9 646.074,-612.9 646.074,-512.9 423.926,-512.9"/>
<text text-anchor="middle" x="535" y="-596.3" font-family="Times,serif" font-size="14.00">«FUNCTION»</text>
<text text-anchor="middle" x="535" y="-579.5" font-family="Times,serif" font-size="14.00"> function</text>
<polyline fill="none" stroke="black" points="423.926,-571.3 646.074,-571.3 "/>
<text text-anchor="start" x="431.926" y="-554.7" font-family="Times,serif" font-size="14.00">&#45;drawerWidth : variable = 240</text>
<text text-anchor="start" x="431.926" y="-537.9" font-family="Times,serif" font-size="14.00">&#45;styles : variable = theme</text>
<text text-anchor="start" x="431.926" y="-521.1" font-family="Times,serif" font-size="14.00">&#45;swipeDrawerWidth : variable = 200</text>
</g>
<!-- 22 -->
<g id="node14" class="node"><title>22</title>
<polygon fill="lightblue" stroke="black" points="419.96,-372.7 419.96,-414.3 530.04,-414.3 530.04,-372.7 419.96,-372.7"/>
<text text-anchor="middle" x="475" y="-397.7" font-family="Times,serif" font-size="14.00">«FUNCTION»</text>
<text text-anchor="middle" x="475" y="-380.9" font-family="Times,serif" font-size="14.00"> function</text>
</g>
<!-- 21&#45;&gt;22 -->
<g id="edge13" class="edge"><title>21&#45;&gt;22</title>
<path fill="none" stroke="black" d="M513.224,-501.146C502.294,-470.651 489.786,-435.753 482.141,-414.422"/>
<polygon fill="black" stroke="black" points="513.274,-501.284 519.064,-505.582 517.323,-512.58 511.533,-508.281 513.274,-501.284"/>
</g>
<!-- 23 -->
<g id="node15" class="node"><title>23</title>
<polygon fill="khaki" stroke="black" points="536.714,-372.7 536.714,-414.3 629.286,-414.3 629.286,-372.7 536.714,-372.7"/>
<text text-anchor="middle" x="583" y="-397.7" font-family="Times,serif" font-size="14.00">«CLASS»</text>
<text text-anchor="middle" x="583" y="-380.9" font-family="Times,serif" font-size="14.00"> AppWrapper</text>
</g>
<!-- 21&#45;&gt;23 -->
<g id="edge14" class="edge"><title>21&#45;&gt;23</title>
<path fill="none" stroke="black" d="M552.536,-500.742C561.253,-470.344 571.198,-435.659 577.287,-414.422"/>
<polygon fill="black" stroke="black" points="552.45,-501.045 554.641,-507.915 549.142,-512.58 546.951,-505.71 552.45,-501.045"/>
</g>
<!-- 24 -->
<g id="node16" class="node"><title>24</title>
<polygon fill="lightblue" stroke="black" points="375.867,-251.7 375.867,-318.1 506.133,-318.1 506.133,-251.7 375.867,-251.7"/>
<text text-anchor="middle" x="441" y="-301.5" font-family="Times,serif" font-size="14.00">«FUNCTION»</text>
<text text-anchor="middle" x="441" y="-284.7" font-family="Times,serif" font-size="14.00"> state()</text>
<polyline fill="none" stroke="black" points="375.867,-276.5 506.133,-276.5 "/>
<text text-anchor="start" x="383.867" y="-259.9" font-family="Times,serif" font-size="14.00">&#45;handleDrawerOpen</text>
</g>
<!-- 23&#45;&gt;24 -->
<g id="edge15" class="edge"><title>23&#45;&gt;24</title>
<path fill="none" stroke="black" d="M565.803,-362.545C557.311,-349.972 546.072,-336.095 533,-326.6 524.244,-320.239 520.016,-322.701 510,-318.6 508.773,-318.098 507.537,-317.585 506.294,-317.063"/>
<polygon fill="black" stroke="black" points="565.813,-362.561 572.413,-365.465 572.271,-372.675 565.67,-369.771 565.813,-362.561"/>
</g>
<!-- 26 -->
<g id="node18" class="node"><title>26</title>
<polygon fill="lightblue" stroke="black" points="513.005,-264.1 513.005,-305.7 652.995,-305.7 652.995,-264.1 513.005,-264.1"/>
<text text-anchor="middle" x="583" y="-289.1" font-family="Times,serif" font-size="14.00">«FUNCTION»</text>
<text text-anchor="middle" x="583" y="-272.3" font-family="Times,serif" font-size="14.00"> handleDrawerClose()</text>
</g>
<!-- 23&#45;&gt;26 -->
<g id="edge17" class="edge"><title>23&#45;&gt;26</title>
<path fill="none" stroke="black" d="M583,-360.343C583,-342.619 583,-321.173 583,-305.861"/>
<polygon fill="black" stroke="black" points="583,-360.449 587,-366.449 583,-372.449 579,-366.449 583,-360.449"/>
</g>
<!-- 27 -->
<g id="node19" class="node"><title>27</title>
<polygon fill="lightblue" stroke="black" points="659.928,-264.1 659.928,-305.7 1102.07,-305.7 1102.07,-264.1 659.928,-264.1"/>
<text text-anchor="middle" x="881" y="-289.1" font-family="Times,serif" font-size="14.00">«FUNCTION»</text>
<text text-anchor="middle" x="881" y="-272.3" font-family="Times,serif" font-size="14.00"> return(✖,✖,✖,noWrap,✖,Time,Plan,Your,Trip,✖,✖,✖,✖,✖,✖,✖,✖,✖,✖,✖,)</text>
</g>
<!-- 23&#45;&gt;27 -->
<g id="edge18" class="edge"><title>23&#45;&gt;27</title>
<path fill="none" stroke="black" d="M640.89,-371.792C694.299,-352.686 773.059,-324.512 825.647,-305.701"/>
<polygon fill="black" stroke="black" points="640.861,-371.802 636.559,-377.589 629.562,-375.844 633.865,-370.057 640.861,-371.802"/>
</g>
<!-- 25 -->
<g id="node17" class="node"><title>25</title>
<polygon fill="lightblue" stroke="black" points="385.96,-188.7 385.96,-230.3 496.04,-230.3 496.04,-188.7 385.96,-188.7"/>
<text text-anchor="middle" x="441" y="-213.7" font-family="Times,serif" font-size="14.00">«FUNCTION»</text>
<text text-anchor="middle" x="441" y="-196.9" font-family="Times,serif" font-size="14.00"> function</text>
</g>
<!-- 24&#45;&gt;25 -->
<g id="edge16" class="edge"><title>24&#45;&gt;25</title>
<path fill="none" stroke="black" d="M441,-239.227C441,-236.291 441,-233.427 441,-230.715"/>
<polygon fill="black" stroke="black" points="441,-239.492 445,-245.492 441,-251.492 437,-245.492 441,-239.492"/>
</g>
<!-- 28 -->
<g id="node20" class="node"><title>28</title>
<polygon fill="lightblue" stroke="black" points="754.96,-188.7 754.96,-230.3 865.04,-230.3 865.04,-188.7 754.96,-188.7"/>
<text text-anchor="middle" x="810" y="-213.7" font-family="Times,serif" font-size="14.00">«FUNCTION»</text>
<text text-anchor="middle" x="810" y="-196.9" font-family="Times,serif" font-size="14.00"> classNames(✖,)</text>
</g>
<!-- 27&#45;&gt;28 -->
<g id="edge19" class="edge"><title>27&#45;&gt;28</title>
<path fill="none" stroke="black" d="M853.238,-255.199C845.259,-246.951 836.732,-238.136 829.378,-230.533"/>
<polygon fill="black" stroke="black" points="853.256,-255.218 860.302,-256.75 861.599,-263.843 854.552,-262.312 853.256,-255.218"/>
</g>
<!-- 29 -->
<g id="node21" class="node"><title>29</title>
<polygon fill="lightblue" stroke="black" points="872.448,-176.3 872.448,-242.7 1029.55,-242.7 1029.55,-176.3 872.448,-176.3"/>
<text text-anchor="middle" x="951" y="-226.1" font-family="Times,serif" font-size="14.00">«FUNCTION»</text>
<text text-anchor="middle" x="951" y="-209.3" font-family="Times,serif" font-size="14.00"> classNames(✖,)</text>
<polyline fill="none" stroke="black" points="872.448,-201.1 1029.55,-201.1 "/>
<text text-anchor="start" x="880.448" y="-184.5" font-family="Times,serif" font-size="14.00">&#45;AppWrapper.propTypes</text>
</g>
<!-- 27&#45;&gt;29 -->
<g id="edge20" class="edge"><title>27&#45;&gt;29</title>
<path fill="none" stroke="black" d="M908.594,-254.966C912.352,-251.025 916.229,-246.959 920.042,-242.961"/>
<polygon fill="black" stroke="black" points="908.41,-255.159 907.163,-262.262 900.128,-263.843 901.374,-256.741 908.41,-255.159"/>
</g>
<!-- 30 -->
<g id="node22" class="node"><title>30</title>
<polygon fill="lightblue" stroke="black" points="209.96,-542.1 209.96,-583.7 320.04,-583.7 320.04,-542.1 209.96,-542.1"/>
<text text-anchor="middle" x="265" y="-567.1" font-family="Times,serif" font-size="14.00">«FUNCTION»</text>
<text text-anchor="middle" x="265" y="-550.3" font-family="Times,serif" font-size="14.00"> function</text>
</g>
<!-- 13 -->
<g id="node24" class="node"><title>13</title>
<polygon fill="lightblue" stroke="black" points="4710.96,-372.7 4710.96,-414.3 4821.04,-414.3 4821.04,-372.7 4710.96,-372.7"/>
<text text-anchor="middle" x="4766" y="-397.7" font-family="Times,serif" font-size="14.00">«FUNCTION»</text>
<text text-anchor="middle" x="4766" y="-380.9" font-family="Times,serif" font-size="14.00"> function</text>
</g>
<!-- 14 -->
<g id="node25" class="node"><title>14</title>
<polygon fill="lightblue" stroke="black" points="4720.96,-264.1 4720.96,-305.7 4831.04,-305.7 4831.04,-264.1 4720.96,-264.1"/>
<text text-anchor="middle" x="4776" y="-289.1" font-family="Times,serif" font-size="14.00">«FUNCTION»</text>
<text text-anchor="middle" x="4776" y="-272.3" font-family="Times,serif" font-size="14.00"> function</text>
</g>
<!-- 13&#45;&gt;14 -->
<g id="edge2" class="edge"><title>13&#45;&gt;14</title>
<path fill="none" stroke="black" d="M4769.02,-360.343C4770.68,-342.619 4772.69,-321.173 4774.13,-305.861"/>
<polygon fill="black" stroke="black" points="4769,-360.502 4772.42,-366.849 4767.88,-372.449 4764.46,-366.102 4769,-360.502"/>
</g>
<!-- 15 -->
<g id="node26" class="node"><title>15</title>
<polygon fill="khaki" stroke="black" points="4713.37,-188.7 4713.37,-230.3 4838.63,-230.3 4838.63,-188.7 4713.37,-188.7"/>
<text text-anchor="middle" x="4776" y="-213.7" font-family="Times,serif" font-size="14.00">«CLASS»</text>
<text text-anchor="middle" x="4776" y="-196.9" font-family="Times,serif" font-size="14.00"> WithAuthorization</text>
</g>
<!-- 14&#45;&gt;15 -->
<g id="edge3" class="edge"><title>14&#45;&gt;15</title>
<path fill="none" stroke="black" d="M4776,-251.749C4776,-244.536 4776,-237.084 4776,-230.533"/>
<polygon fill="black" stroke="black" points="4776,-251.843 4780,-257.843 4776,-263.843 4772,-257.843 4776,-251.843"/>
</g>
<!-- 20 -->
<g id="node31" class="node"><title>20</title>
<polygon fill="lightblue" stroke="black" points="4845.96,-188.7 4845.96,-230.3 4956.04,-230.3 4956.04,-188.7 4845.96,-188.7"/>
<text text-anchor="middle" x="4901" y="-213.7" font-family="Times,serif" font-size="14.00">«FUNCTION»</text>
<text text-anchor="middle" x="4901" y="-196.9" font-family="Times,serif" font-size="14.00"> function</text>
</g>
<!-- 14&#45;&gt;20 -->
<g id="edge8" class="edge"><title>14&#45;&gt;20</title>
<path fill="none" stroke="black" d="M4820.2,-257.948C4835.63,-248.887 4852.69,-238.867 4867.15,-230.379"/>
<polygon fill="black" stroke="black" points="4820.17,-257.961 4817.03,-264.448 4809.83,-264.037 4812.98,-257.549 4820.17,-257.961"/>
</g>
<!-- 16 -->
<g id="node27" class="node"><title>16</title>
<polygon fill="lightblue" stroke="black" points="4701.32,-117.7 4701.32,-159.3 4850.68,-159.3 4850.68,-117.7 4701.32,-117.7"/>
<text text-anchor="middle" x="4776" y="-142.7" font-family="Times,serif" font-size="14.00">«FUNCTION»</text>
<text text-anchor="middle" x="4776" y="-125.9" font-family="Times,serif" font-size="14.00"> componentDidMount()</text>
</g>
<!-- 15&#45;&gt;16 -->
<g id="edge4" class="edge"><title>15&#45;&gt;16</title>
<path fill="none" stroke="black" d="M4776,-176.425C4776,-170.713 4776,-164.912 4776,-159.652"/>
<polygon fill="black" stroke="black" points="4776,-176.542 4780,-182.542 4776,-188.542 4772,-182.542 4776,-176.542"/>
</g>
<!-- 19 -->
<g id="node30" class="node"><title>19</title>
<polygon fill="lightblue" stroke="black" points="4857.96,-117.7 4857.96,-159.3 4968.04,-159.3 4968.04,-117.7 4857.96,-117.7"/>
<text text-anchor="middle" x="4913" y="-142.7" font-family="Times,serif" font-size="14.00">«FUNCTION»</text>
<text text-anchor="middle" x="4913" y="-125.9" font-family="Times,serif" font-size="14.00"> render()</text>
</g>
<!-- 15&#45;&gt;19 -->
<g id="edge7" class="edge"><title>15&#45;&gt;19</title>
<path fill="none" stroke="black" d="M4816.86,-182.248C4825.36,-177.196 4834.36,-172.134 4843,-167.8 4848.74,-164.919 4854.85,-162.105 4860.97,-159.436"/>
<polygon fill="black" stroke="black" points="4816.69,-182.355 4813.64,-188.889 4806.43,-188.586 4809.48,-182.052 4816.69,-182.355"/>
</g>
<!-- 17 -->
<g id="node28" class="node"><title>17</title>
<polygon fill="lightblue" stroke="black" points="4720.96,-67.1 4720.96,-108.7 4831.04,-108.7 4831.04,-67.1 4720.96,-67.1"/>
<text text-anchor="middle" x="4776" y="-92.1" font-family="Times,serif" font-size="14.00">«FUNCTION»</text>
<text text-anchor="middle" x="4776" y="-75.3" font-family="Times,serif" font-size="14.00"> function</text>
</g>
<!-- 16&#45;&gt;17 -->
<g id="edge5" class="edge"><title>16&#45;&gt;17</title>
<path fill="none" stroke="black" d="M4776,-109.167C4776,-109.079 4776,-108.99 4776,-108.902"/>
<polygon fill="black" stroke="black" points="4776,-105.452 4780,-111.452 4776,-117.452 4772,-111.452 4776,-105.452"/>
</g>
<!-- 18 -->
<g id="node29" class="node"><title>18</title>
<polygon fill="khaki" stroke="black" points="4723.48,-16.5 4723.48,-58.1 4828.52,-58.1 4828.52,-16.5 4723.48,-16.5"/>
<text text-anchor="middle" x="4776" y="-41.5" font-family="Times,serif" font-size="14.00">«BLOCK»</text>
<text text-anchor="middle" x="4776" y="-24.7" font-family="Times,serif" font-size="14.00"> CallExpression</text>
</g>
<!-- 17&#45;&gt;18 -->
<g id="edge6" class="edge"><title>17&#45;&gt;18</title>
<path fill="none" stroke="black" d="M4776,-58.5669C4776,-58.4785 4776,-58.3902 4776,-58.302"/>
<polygon fill="black" stroke="black" points="4776,-54.8519 4780,-60.852 4776,-66.8519 4772,-60.8519 4776,-54.8519"/>
</g>
</g>
</svg>
