<?xml version="1.0" encoding="UTF-8" standalone="no"?>
<!DOCTYPE svg PUBLIC "-//W3C//DTD SVG 1.1//EN"
 "http://www.w3.org/Graphics/SVG/1.1/DTD/svg11.dtd">
<!-- Generated by graphviz version 2.38.0 (20140413.2041)
 -->
<!-- Title: G Pages: 1 -->
<svg width="3084pt" height="630pt"
 viewBox="0.00 0.00 3084.00 630.20" xmlns="http://www.w3.org/2000/svg" xmlns:xlink="http://www.w3.org/1999/xlink">
<g id="graph0" class="graph" transform="scale(1 1) rotate(0) translate(4 626.2)">
<title>G</title>
<polygon fill="white" stroke="none" points="-4,4 -4,-626.2 3080,-626.2 3080,4 -4,4"/>
<g id="clust1" class="cluster"><title>cluster_0</title>
<polygon fill="lightgray" stroke="lightgrey" points="8,-8 8,-614.2 1039,-614.2 1039,-8 8,-8"/>
<text text-anchor="middle" x="523.694" y="-583.2" font-family="Times,serif" font-size="30.00">C:/Users/Service/Desktop/PerfectTimeWorkspace/PerfectTime/src/serviceWorker.js</text>
</g>
<g id="clust2" class="cluster"><title>cluster_1</title>
<polygon fill="lightgray" stroke="lightgrey" points="1047,-310.6 1047,-601.8 2046,-601.8 2046,-310.6 1047,-310.6"/>
<text text-anchor="middle" x="1546.9" y="-570.8" font-family="Times,serif" font-size="30.00">C:/Users/Service/Desktop/PerfectTimeWorkspace/PerfectTime/src/styles/App.css</text>
</g>
<g id="clust3" class="cluster"><title>cluster_2</title>
<polygon fill="lightgray" stroke="lightgrey" points="2054,-335.8 2054,-601.8 3068,-601.8 3068,-335.8 2054,-335.8"/>
<text text-anchor="middle" x="2561.4" y="-570.8" font-family="Times,serif" font-size="30.00">C:/Users/Service/Desktop/PerfectTimeWorkspace/PerfectTime/src/styles/index.css</text>
</g>
<!-- 0 -->
<g id="node1" class="node"><title>0</title>
<polygon fill="lightyellow" stroke="black" points="883.41,-503.7 883.41,-553.3 1024.59,-553.3 1024.59,-503.7 883.41,-503.7"/>
<text text-anchor="middle" x="954" y="-536.7" font-family="Times,serif" font-size="14.00">«GLOBAL»</text>
<polyline fill="none" stroke="black" points="883.41,-528.5 1024.59,-528.5 "/>
<text text-anchor="start" x="891.41" y="-511.9" font-family="Times,serif" font-size="14.00">&#45;isLocalhost : variable</text>
</g>
<!-- 9 -->
<g id="node2" class="node"><title>9</title>
<polygon fill="lightblue" stroke="black" points="719.96,-495.3 719.96,-561.7 830.04,-561.7 830.04,-495.3 719.96,-495.3"/>
<text text-anchor="middle" x="775" y="-545.1" font-family="Times,serif" font-size="14.00">«FUNCTION»</text>
<text text-anchor="middle" x="775" y="-528.3" font-family="Times,serif" font-size="14.00"> register(config)</text>
<polyline fill="none" stroke="black" points="719.96,-520.1 830.04,-520.1 "/>
<text text-anchor="start" x="727.96" y="-503.5" font-family="Times,serif" font-size="14.00">&#45;undefined()</text>
</g>
<!-- 10 -->
<g id="node3" class="node"><title>10</title>
<polygon fill="khaki" stroke="black" points="708.505,-381.9 708.505,-423.5 841.495,-423.5 841.495,-381.9 708.505,-381.9"/>
<text text-anchor="middle" x="775" y="-406.9" font-family="Times,serif" font-size="14.00">«BLOCK»</text>
<text text-anchor="middle" x="775" y="-390.1" font-family="Times,serif" font-size="14.00"> VariableDeclaration</text>
</g>
<!-- 9&#45;&gt;10 -->
<g id="edge7" class="edge"><title>9&#45;&gt;10</title>
<path fill="none" stroke="black" d="M775,-483.095C775,-462.79 775,-439.749 775,-423.739"/>
<polygon fill="black" stroke="black" points="775,-483.296 779,-489.296 775,-495.296 771,-489.296 775,-483.296"/>
</g>
<!-- 11 -->
<g id="node4" class="node"><title>11</title>
<polygon fill="khaki" stroke="black" points="660.204,-239.7 660.204,-281.3 773.796,-281.3 773.796,-239.7 660.204,-239.7"/>
<text text-anchor="middle" x="717" y="-264.7" font-family="Times,serif" font-size="14.00">«BLOCK»</text>
<text text-anchor="middle" x="717" y="-247.9" font-family="Times,serif" font-size="14.00"> ReturnStatement</text>
</g>
<!-- 10&#45;&gt;11 -->
<g id="edge8" class="edge"><title>10&#45;&gt;11</title>
<path fill="none" stroke="black" d="M762.047,-370.389C750.814,-343.236 734.892,-304.75 725.295,-281.55"/>
<polygon fill="black" stroke="black" points="762.103,-370.524 768.093,-374.539 766.69,-381.613 760.7,-377.598 762.103,-370.524"/>
</g>
<!-- 12 -->
<g id="node5" class="node"><title>12</title>
<polygon fill="lightblue" stroke="black" points="780.577,-227.3 780.577,-293.7 891.423,-293.7 891.423,-227.3 780.577,-227.3"/>
<text text-anchor="middle" x="836" y="-277.1" font-family="Times,serif" font-size="14.00">«FUNCTION»</text>
<text text-anchor="middle" x="836" y="-260.3" font-family="Times,serif" font-size="14.00"> function</text>
<polyline fill="none" stroke="black" points="780.577,-252.1 891.423,-252.1 "/>
<text text-anchor="start" x="788.577" y="-235.5" font-family="Times,serif" font-size="14.00">&#45;swUrl : variable</text>
</g>
<!-- 10&#45;&gt;12 -->
<g id="edge9" class="edge"><title>10&#45;&gt;12</title>
<path fill="none" stroke="black" d="M788.577,-370.495C798.508,-347.67 811.941,-316.797 821.975,-293.735"/>
<polygon fill="black" stroke="black" points="788.527,-370.609 789.802,-377.707 783.74,-381.613 782.466,-374.515 788.527,-370.609"/>
</g>
<!-- 13 -->
<g id="node6" class="node"><title>13</title>
<polygon fill="khaki" stroke="black" points="727.48,-168.3 727.48,-209.9 832.52,-209.9 832.52,-168.3 727.48,-168.3"/>
<text text-anchor="middle" x="780" y="-193.3" font-family="Times,serif" font-size="14.00">«BLOCK»</text>
<text text-anchor="middle" x="780" y="-176.5" font-family="Times,serif" font-size="14.00"> CallExpression</text>
</g>
<!-- 12&#45;&gt;13 -->
<g id="edge10" class="edge"><title>12&#45;&gt;13</title>
<path fill="none" stroke="black" d="M802.302,-217.739C800.215,-215.152 798.171,-212.619 796.221,-210.202"/>
<polygon fill="black" stroke="black" points="802.432,-217.899 809.312,-220.057 809.967,-227.238 803.087,-225.081 802.432,-217.899"/>
</g>
<!-- 15 -->
<g id="node8" class="node"><title>15</title>
<polygon fill="khaki" stroke="black" points="839.48,-168.3 839.48,-209.9 944.52,-209.9 944.52,-168.3 839.48,-168.3"/>
<text text-anchor="middle" x="892" y="-193.3" font-family="Times,serif" font-size="14.00">«BLOCK»</text>
<text text-anchor="middle" x="892" y="-176.5" font-family="Times,serif" font-size="14.00"> CallExpression</text>
</g>
<!-- 12&#45;&gt;15 -->
<g id="edge12" class="edge"><title>12&#45;&gt;15</title>
<path fill="none" stroke="black" d="M869.698,-217.739C871.785,-215.152 873.829,-212.619 875.779,-210.202"/>
<polygon fill="black" stroke="black" points="869.568,-217.899 868.913,-225.081 862.033,-227.238 862.688,-220.057 869.568,-217.899"/>
</g>
<!-- 14 -->
<g id="node7" class="node"><title>14</title>
<polygon fill="lightblue" stroke="black" points="724.96,-117.7 724.96,-159.3 835.04,-159.3 835.04,-117.7 724.96,-117.7"/>
<text text-anchor="middle" x="780" y="-142.7" font-family="Times,serif" font-size="14.00">«FUNCTION»</text>
<text text-anchor="middle" x="780" y="-125.9" font-family="Times,serif" font-size="14.00"> function</text>
</g>
<!-- 13&#45;&gt;14 -->
<g id="edge11" class="edge"><title>13&#45;&gt;14</title>
<path fill="none" stroke="black" d="M780,-159.767C780,-159.679 780,-159.59 780,-159.502"/>
<polygon fill="black" stroke="black" points="780,-156.052 784,-162.052 780,-168.052 776,-162.052 780,-156.052"/>
</g>
<!-- 16 -->
<g id="node9" class="node"><title>16</title>
<polygon fill="lightblue" stroke="black" points="487.814,-507.7 487.814,-549.3 684.186,-549.3 684.186,-507.7 487.814,-507.7"/>
<text text-anchor="middle" x="586" y="-532.7" font-family="Times,serif" font-size="14.00">«FUNCTION»</text>
<text text-anchor="middle" x="586" y="-515.9" font-family="Times,serif" font-size="14.00"> registerValidSW(swUrl,config)</text>
</g>
<!-- 17 -->
<g id="node10" class="node"><title>17</title>
<polygon fill="lightblue" stroke="black" points="410.051,-369.5 410.051,-435.9 581.949,-435.9 581.949,-369.5 410.051,-369.5"/>
<text text-anchor="middle" x="496" y="-419.3" font-family="Times,serif" font-size="14.00">«FUNCTION»</text>
<text text-anchor="middle" x="496" y="-402.5" font-family="Times,serif" font-size="14.00"> function</text>
<polyline fill="none" stroke="black" points="410.051,-394.3 581.949,-394.3 "/>
<text text-anchor="start" x="418.051" y="-377.7" font-family="Times,serif" font-size="14.00">&#45;registration.onupdatefound</text>
</g>
<!-- 16&#45;&gt;17 -->
<g id="edge13" class="edge"><title>16&#45;&gt;17</title>
<path fill="none" stroke="black" d="M564.471,-497.886C550.933,-479.264 533.46,-455.228 519.553,-436.098"/>
<polygon fill="black" stroke="black" points="564.484,-497.903 571.247,-500.404 571.54,-507.609 564.776,-505.108 564.484,-497.903"/>
</g>
<!-- 25 -->
<g id="node18" class="node"><title>25</title>
<polygon fill="lightblue" stroke="black" points="588.96,-381.9 588.96,-423.5 699.04,-423.5 699.04,-381.9 588.96,-381.9"/>
<text text-anchor="middle" x="644" y="-406.9" font-family="Times,serif" font-size="14.00">«FUNCTION»</text>
<text text-anchor="middle" x="644" y="-390.1" font-family="Times,serif" font-size="14.00"> function</text>
</g>
<!-- 16&#45;&gt;25 -->
<g id="edge21" class="edge"><title>16&#45;&gt;25</title>
<path fill="none" stroke="black" d="M600.551,-496.441C611.258,-473.586 625.496,-443.196 634.704,-423.541"/>
<polygon fill="black" stroke="black" points="600.41,-496.743 601.486,-503.873 595.319,-507.609 594.242,-500.479 600.41,-496.743"/>
</g>
<!-- 18 -->
<g id="node11" class="node"><title>18</title>
<polygon fill="lightblue" stroke="black" points="396.839,-218.9 396.839,-302.1 595.161,-302.1 595.161,-218.9 396.839,-218.9"/>
<text text-anchor="middle" x="496" y="-285.5" font-family="Times,serif" font-size="14.00">«FUNCTION»</text>
<text text-anchor="middle" x="496" y="-268.7" font-family="Times,serif" font-size="14.00"> function</text>
<polyline fill="none" stroke="black" points="396.839,-260.5 595.161,-260.5 "/>
<text text-anchor="start" x="404.839" y="-243.9" font-family="Times,serif" font-size="14.00">&#45;installingWorker : object</text>
<text text-anchor="start" x="404.839" y="-227.1" font-family="Times,serif" font-size="14.00">&#45;installingWorker.onstatechange</text>
</g>
<!-- 17&#45;&gt;18 -->
<g id="edge14" class="edge"><title>17&#45;&gt;18</title>
<path fill="none" stroke="black" d="M496,-357.146C496,-339.503 496,-319.359 496,-302.122"/>
<polygon fill="black" stroke="black" points="496,-357.183 500,-363.183 496,-369.183 492,-363.183 496,-357.183"/>
</g>
<!-- 19 -->
<g id="node12" class="node"><title>19</title>
<polygon fill="lightblue" stroke="black" points="440.96,-168.3 440.96,-209.9 551.04,-209.9 551.04,-168.3 440.96,-168.3"/>
<text text-anchor="middle" x="496" y="-193.3" font-family="Times,serif" font-size="14.00">«FUNCTION»</text>
<text text-anchor="middle" x="496" y="-176.5" font-family="Times,serif" font-size="14.00"> function</text>
</g>
<!-- 18&#45;&gt;19 -->
<g id="edge15" class="edge"><title>18&#45;&gt;19</title>
<path fill="none" stroke="black" d="M496,-210.405C496,-210.319 496,-210.233 496,-210.147"/>
<polygon fill="black" stroke="black" points="496,-206.728 500,-212.728 496,-218.728 492,-212.728 496,-206.728"/>
</g>
<!-- 20 -->
<g id="node13" class="node"><title>20</title>
<polygon fill="khaki" stroke="black" points="452.62,-117.7 452.62,-159.3 539.38,-159.3 539.38,-117.7 452.62,-117.7"/>
<text text-anchor="middle" x="496" y="-142.7" font-family="Times,serif" font-size="14.00">«BLOCK»</text>
<text text-anchor="middle" x="496" y="-125.9" font-family="Times,serif" font-size="14.00"> IfStatement</text>
</g>
<!-- 19&#45;&gt;20 -->
<g id="edge16" class="edge"><title>19&#45;&gt;20</title>
<path fill="none" stroke="black" d="M496,-159.767C496,-159.679 496,-159.59 496,-159.502"/>
<polygon fill="black" stroke="black" points="496,-156.052 500,-162.052 496,-168.052 492,-162.052 496,-156.052"/>
</g>
<!-- 21 -->
<g id="node14" class="node"><title>21</title>
<polygon fill="khaki" stroke="black" points="387.48,-67.1 387.48,-108.7 492.52,-108.7 492.52,-67.1 387.48,-67.1"/>
<text text-anchor="middle" x="440" y="-92.1" font-family="Times,serif" font-size="14.00">«BLOCK»</text>
<text text-anchor="middle" x="440" y="-75.3" font-family="Times,serif" font-size="14.00"> CallExpression</text>
</g>
<!-- 20&#45;&gt;21 -->
<g id="edge17" class="edge"><title>20&#45;&gt;21</title>
<path fill="none" stroke="black" d="M463.659,-109.432C463.455,-109.255 463.251,-109.078 463.048,-108.902"/>
<polygon fill="black" stroke="black" points="463.836,-109.587 470.99,-110.498 472.899,-117.452 465.746,-116.54 463.836,-109.587"/>
</g>
<!-- 23 -->
<g id="node16" class="node"><title>23</title>
<polygon fill="khaki" stroke="black" points="499.48,-67.1 499.48,-108.7 604.52,-108.7 604.52,-67.1 499.48,-67.1"/>
<text text-anchor="middle" x="552" y="-92.1" font-family="Times,serif" font-size="14.00">«BLOCK»</text>
<text text-anchor="middle" x="552" y="-75.3" font-family="Times,serif" font-size="14.00"> CallExpression</text>
</g>
<!-- 20&#45;&gt;23 -->
<g id="edge19" class="edge"><title>20&#45;&gt;23</title>
<path fill="none" stroke="black" d="M528.341,-109.432C528.545,-109.255 528.749,-109.078 528.952,-108.902"/>
<polygon fill="black" stroke="black" points="528.164,-109.587 526.254,-116.54 519.101,-117.452 521.01,-110.498 528.164,-109.587"/>
</g>
<!-- 22 -->
<g id="node15" class="node"><title>22</title>
<polygon fill="khaki" stroke="black" points="387.48,-16.5 387.48,-58.1 492.52,-58.1 492.52,-16.5 387.48,-16.5"/>
<text text-anchor="middle" x="440" y="-41.5" font-family="Times,serif" font-size="14.00">«BLOCK»</text>
<text text-anchor="middle" x="440" y="-24.7" font-family="Times,serif" font-size="14.00"> CallExpression</text>
</g>
<!-- 21&#45;&gt;22 -->
<g id="edge18" class="edge"><title>21&#45;&gt;22</title>
<path fill="none" stroke="black" d="M440,-58.5669C440,-58.4785 440,-58.3902 440,-58.302"/>
<polygon fill="black" stroke="black" points="440,-54.8519 444,-60.852 440,-66.8519 436,-60.8519 440,-54.8519"/>
</g>
<!-- 24 -->
<g id="node17" class="node"><title>24</title>
<polygon fill="khaki" stroke="black" points="499.48,-16.5 499.48,-58.1 604.52,-58.1 604.52,-16.5 499.48,-16.5"/>
<text text-anchor="middle" x="552" y="-41.5" font-family="Times,serif" font-size="14.00">«BLOCK»</text>
<text text-anchor="middle" x="552" y="-24.7" font-family="Times,serif" font-size="14.00"> CallExpression</text>
</g>
<!-- 23&#45;&gt;24 -->
<g id="edge20" class="edge"><title>23&#45;&gt;24</title>
<path fill="none" stroke="black" d="M552,-58.5669C552,-58.4785 552,-58.3902 552,-58.302"/>
<polygon fill="black" stroke="black" points="552,-54.8519 556,-60.852 552,-66.8519 548,-60.8519 552,-54.8519"/>
</g>
<!-- 26 -->
<g id="node19" class="node"><title>26</title>
<polygon fill="lightblue" stroke="black" points="194.615,-507.7 194.615,-549.3 445.385,-549.3 445.385,-507.7 194.615,-507.7"/>
<text text-anchor="middle" x="320" y="-532.7" font-family="Times,serif" font-size="14.00">«FUNCTION»</text>
<text text-anchor="middle" x="320" y="-515.9" font-family="Times,serif" font-size="14.00"> checkValidServiceWorker(swUrl,config)</text>
</g>
<!-- 27 -->
<g id="node20" class="node"><title>27</title>
<polygon fill="lightblue" stroke="black" points="172.96,-381.9 172.96,-423.5 283.04,-423.5 283.04,-381.9 172.96,-381.9"/>
<text text-anchor="middle" x="228" y="-406.9" font-family="Times,serif" font-size="14.00">«FUNCTION»</text>
<text text-anchor="middle" x="228" y="-390.1" font-family="Times,serif" font-size="14.00"> function</text>
</g>
<!-- 26&#45;&gt;27 -->
<g id="edge22" class="edge"><title>26&#45;&gt;27</title>
<path fill="none" stroke="black" d="M295.616,-497.875C292.678,-494.173 289.747,-490.418 287,-486.8 270.952,-465.661 253.454,-440.764 241.715,-423.771"/>
<polygon fill="black" stroke="black" points="295.769,-498.065 302.647,-500.232 303.292,-507.415 296.414,-505.247 295.769,-498.065"/>
</g>
<!-- 32 -->
<g id="node25" class="node"><title>32</title>
<polygon fill="lightblue" stroke="black" points="289.96,-381.9 289.96,-423.5 400.04,-423.5 400.04,-381.9 289.96,-381.9"/>
<text text-anchor="middle" x="345" y="-406.9" font-family="Times,serif" font-size="14.00">«FUNCTION»</text>
<text text-anchor="middle" x="345" y="-390.1" font-family="Times,serif" font-size="14.00"> function</text>
</g>
<!-- 26&#45;&gt;32 -->
<g id="edge27" class="edge"><title>26&#45;&gt;32</title>
<path fill="none" stroke="black" d="M326.399,-495.81C331,-473.029 337.061,-443.016 340.993,-423.541"/>
<polygon fill="black" stroke="black" points="326.392,-495.847 329.125,-502.52 324.017,-507.609 321.284,-500.936 326.392,-495.847"/>
</g>
<!-- 28 -->
<g id="node21" class="node"><title>28</title>
<polygon fill="khaki" stroke="black" points="166.48,-239.7 166.48,-281.3 271.52,-281.3 271.52,-239.7 166.48,-239.7"/>
<text text-anchor="middle" x="219" y="-264.7" font-family="Times,serif" font-size="14.00">«BLOCK»</text>
<text text-anchor="middle" x="219" y="-247.9" font-family="Times,serif" font-size="14.00"> CallExpression</text>
</g>
<!-- 27&#45;&gt;28 -->
<g id="edge23" class="edge"><title>27&#45;&gt;28</title>
<path fill="none" stroke="black" d="M225.919,-369.287C224.181,-342.203 221.756,-304.438 220.287,-281.55"/>
<polygon fill="black" stroke="black" points="225.942,-369.637 230.318,-375.369 226.711,-381.613 222.334,-375.881 225.942,-369.637"/>
</g>
<!-- 31 -->
<g id="node24" class="node"><title>31</title>
<polygon fill="khaki" stroke="black" points="278.48,-239.7 278.48,-281.3 383.52,-281.3 383.52,-239.7 278.48,-239.7"/>
<text text-anchor="middle" x="331" y="-264.7" font-family="Times,serif" font-size="14.00">«BLOCK»</text>
<text text-anchor="middle" x="331" y="-247.9" font-family="Times,serif" font-size="14.00"> CallExpression</text>
</g>
<!-- 27&#45;&gt;31 -->
<g id="edge26" class="edge"><title>27&#45;&gt;31</title>
<path fill="none" stroke="black" d="M246.049,-371.276C257.188,-353.177 272.146,-330.031 287,-310.6 294.647,-300.597 303.846,-290.125 311.851,-281.434"/>
<polygon fill="black" stroke="black" points="246.037,-371.295 246.338,-378.5 239.802,-381.548 239.502,-374.343 246.037,-371.295"/>
</g>
<!-- 29 -->
<g id="node22" class="node"><title>29</title>
<polygon fill="lightblue" stroke="black" points="163.96,-168.3 163.96,-209.9 274.04,-209.9 274.04,-168.3 163.96,-168.3"/>
<text text-anchor="middle" x="219" y="-193.3" font-family="Times,serif" font-size="14.00">«FUNCTION»</text>
<text text-anchor="middle" x="219" y="-176.5" font-family="Times,serif" font-size="14.00"> function</text>
</g>
<!-- 28&#45;&gt;29 -->
<g id="edge24" class="edge"><title>28&#45;&gt;29</title>
<path fill="none" stroke="black" d="M219,-227.239C219,-221.494 219,-215.659 219,-210.369"/>
<polygon fill="black" stroke="black" points="219,-227.427 223,-233.427 219,-239.427 215,-233.427 219,-227.427"/>
</g>
<!-- 30 -->
<g id="node23" class="node"><title>30</title>
<polygon fill="lightblue" stroke="black" points="163.96,-117.7 163.96,-159.3 274.04,-159.3 274.04,-117.7 163.96,-117.7"/>
<text text-anchor="middle" x="219" y="-142.7" font-family="Times,serif" font-size="14.00">«FUNCTION»</text>
<text text-anchor="middle" x="219" y="-125.9" font-family="Times,serif" font-size="14.00"> function</text>
</g>
<!-- 29&#45;&gt;30 -->
<g id="edge25" class="edge"><title>29&#45;&gt;30</title>
<path fill="none" stroke="black" d="M219,-159.767C219,-159.679 219,-159.59 219,-159.502"/>
<polygon fill="black" stroke="black" points="219,-156.052 223,-162.052 219,-168.052 215,-162.052 219,-156.052"/>
</g>
<!-- 33 -->
<g id="node26" class="node"><title>33</title>
<polygon fill="lightblue" stroke="black" points="37.96,-507.7 37.96,-549.3 148.04,-549.3 148.04,-507.7 37.96,-507.7"/>
<text text-anchor="middle" x="93" y="-532.7" font-family="Times,serif" font-size="14.00">«FUNCTION»</text>
<text text-anchor="middle" x="93" y="-515.9" font-family="Times,serif" font-size="14.00"> unregister()</text>
</g>
<!-- 34 -->
<g id="node27" class="node"><title>34</title>
<polygon fill="khaki" stroke="black" points="40.48,-381.9 40.48,-423.5 145.52,-423.5 145.52,-381.9 40.48,-381.9"/>
<text text-anchor="middle" x="93" y="-406.9" font-family="Times,serif" font-size="14.00">«BLOCK»</text>
<text text-anchor="middle" x="93" y="-390.1" font-family="Times,serif" font-size="14.00"> CallExpression</text>
</g>
<!-- 33&#45;&gt;34 -->
<g id="edge28" class="edge"><title>33&#45;&gt;34</title>
<path fill="none" stroke="black" d="M93,-495.493C93,-472.752 93,-442.926 93,-423.541"/>
<polygon fill="black" stroke="black" points="93.0001,-495.609 97,-501.609 93,-507.609 89,-501.609 93.0001,-495.609"/>
</g>
<!-- 35 -->
<g id="node28" class="node"><title>35</title>
<polygon fill="lightblue" stroke="black" points="37.96,-239.7 37.96,-281.3 148.04,-281.3 148.04,-239.7 37.96,-239.7"/>
<text text-anchor="middle" x="93" y="-264.7" font-family="Times,serif" font-size="14.00">«FUNCTION»</text>
<text text-anchor="middle" x="93" y="-247.9" font-family="Times,serif" font-size="14.00"> function</text>
</g>
<!-- 34&#45;&gt;35 -->
<g id="edge29" class="edge"><title>34&#45;&gt;35</title>
<path fill="none" stroke="black" d="M93,-369.287C93,-342.203 93,-304.438 93,-281.55"/>
<polygon fill="black" stroke="black" points="93.0001,-369.613 97,-375.613 93,-381.613 89,-375.613 93.0001,-369.613"/>
</g>
<!-- 1 -->
<g id="node29" class="node"><title>1</title>
<polygon fill="lightgreen" stroke="black" points="1337.7,-507.7 1337.7,-549.3 1816.3,-549.3 1816.3,-507.7 1337.7,-507.7"/>
<text text-anchor="middle" x="1577" y="-532.7" font-family="Times,serif" font-size="14.00">«CSS»</text>
<text text-anchor="middle" x="1577" y="-515.9" font-family="Times,serif" font-size="14.00"> C:/Users/Service/Desktop/PerfectTimeWorkspace/PerfectTime/src/styles/App.css</text>
</g>
<!-- 3 -->
<g id="node30" class="node"><title>3</title>
<polygon fill="palegreen" stroke="black" points="1188.68,-377.9 1188.68,-427.5 1315.32,-427.5 1315.32,-377.9 1188.68,-377.9"/>
<text text-anchor="middle" x="1252" y="-410.9" font-family="Times,serif" font-size="14.00">.App</text>
<polyline fill="none" stroke="black" points="1188.68,-402.7 1315.32,-402.7 "/>
<text text-anchor="start" x="1196.68" y="-386.1" font-family="Times,serif" font-size="14.00">+text&#45;align = center</text>
</g>
<!-- 1&#45;&gt;3 -->
<g id="edge1" class="edge"><title>1&#45;&gt;3</title>
<path fill="none" stroke="black" d="M1380.54,-505.425C1353.98,-500.246 1331.57,-494.068 1319,-486.8 1295.1,-472.975 1276.32,-447.092 1264.8,-427.871"/>
<polygon fill="black" stroke="black" points="1380.79,-505.47 1387.41,-502.632 1392.58,-507.659 1385.95,-510.497 1380.79,-505.47"/>
</g>
<!-- 4 -->
<g id="node31" class="node"><title>4</title>
<polygon fill="palegreen" stroke="black" points="1321.95,-369.5 1321.95,-435.9 1594.05,-435.9 1594.05,-369.5 1321.95,-369.5"/>
<text text-anchor="middle" x="1458" y="-419.3" font-family="Times,serif" font-size="14.00">.App&#45;logo</text>
<polyline fill="none" stroke="black" points="1321.95,-411.1 1594.05,-411.1 "/>
<text text-anchor="start" x="1329.95" y="-394.5" font-family="Times,serif" font-size="14.00">+animation = App&#45;logo&#45;spin infinite 20s lin...</text>
<text text-anchor="start" x="1329.95" y="-377.7" font-family="Times,serif" font-size="14.00">+height = 40vmin</text>
</g>
<!-- 1&#45;&gt;4 -->
<g id="edge2" class="edge"><title>1&#45;&gt;4</title>
<path fill="none" stroke="black" d="M1549.52,-498.915C1531.49,-480.156 1507.87,-455.582 1489.14,-436.098"/>
<polygon fill="black" stroke="black" points="1549.56,-498.958 1556.61,-500.512 1557.88,-507.609 1550.84,-506.056 1549.56,-498.958"/>
</g>
<!-- 5 -->
<g id="node32" class="node"><title>5</title>
<polygon fill="palegreen" stroke="black" points="1601.51,-319.1 1601.51,-486.3 1790.49,-486.3 1790.49,-319.1 1601.51,-319.1"/>
<text text-anchor="middle" x="1696" y="-469.7" font-family="Times,serif" font-size="14.00">.App&#45;header</text>
<polyline fill="none" stroke="black" points="1601.51,-461.5 1790.49,-461.5 "/>
<text text-anchor="start" x="1609.51" y="-444.9" font-family="Times,serif" font-size="14.00">+align&#45;items = center</text>
<text text-anchor="start" x="1609.51" y="-428.1" font-family="Times,serif" font-size="14.00">+background&#45;color = 282c34</text>
<text text-anchor="start" x="1609.51" y="-411.3" font-family="Times,serif" font-size="14.00">+color = white</text>
<text text-anchor="start" x="1609.51" y="-394.5" font-family="Times,serif" font-size="14.00">+display = flex</text>
<text text-anchor="start" x="1609.51" y="-377.7" font-family="Times,serif" font-size="14.00">+flex&#45;direction = column</text>
<text text-anchor="start" x="1609.51" y="-360.9" font-family="Times,serif" font-size="14.00">+font&#45;size = calc10px + 2vmin</text>
<text text-anchor="start" x="1609.51" y="-344.1" font-family="Times,serif" font-size="14.00">+justify&#45;content = center</text>
<text text-anchor="start" x="1609.51" y="-327.3" font-family="Times,serif" font-size="14.00">+min&#45;height = 100vh</text>
</g>
<!-- 1&#45;&gt;5 -->
<g id="edge3" class="edge"><title>1&#45;&gt;5</title>
<path fill="none" stroke="black" d="M1604.51,-498.879C1608.32,-494.915 1612.38,-490.692 1616.59,-486.313"/>
<polygon fill="black" stroke="black" points="1604.44,-498.958 1603.16,-506.056 1596.12,-507.609 1597.39,-500.512 1604.44,-498.958"/>
</g>
<!-- 6 -->
<g id="node33" class="node"><title>6</title>
<polygon fill="palegreen" stroke="black" points="1797.78,-377.9 1797.78,-427.5 1904.22,-427.5 1904.22,-377.9 1797.78,-377.9"/>
<text text-anchor="middle" x="1851" y="-410.9" font-family="Times,serif" font-size="14.00">.App&#45;link</text>
<polyline fill="none" stroke="black" points="1797.78,-402.7 1904.22,-402.7 "/>
<text text-anchor="start" x="1805.78" y="-386.1" font-family="Times,serif" font-size="14.00">+color = 61dafb</text>
</g>
<!-- 1&#45;&gt;6 -->
<g id="edge4" class="edge"><title>1&#45;&gt;6</title>
<path fill="none" stroke="black" d="M1739.56,-505.174C1763.23,-499.944 1783.24,-493.813 1794,-486.8 1815.84,-472.569 1831.57,-446.753 1840.9,-427.658"/>
<polygon fill="black" stroke="black" points="1739.42,-505.205 1734.37,-510.352 1727.68,-507.669 1732.73,-502.522 1739.42,-505.205"/>
</g>
<!-- 2 -->
<g id="node34" class="node"><title>2</title>
<polygon fill="lightgreen" stroke="black" points="2171.2,-507.7 2171.2,-549.3 2656.8,-549.3 2656.8,-507.7 2171.2,-507.7"/>
<text text-anchor="middle" x="2414" y="-532.7" font-family="Times,serif" font-size="14.00">«CSS»</text>
<text text-anchor="middle" x="2414" y="-515.9" font-family="Times,serif" font-size="14.00"> C:/Users/Service/Desktop/PerfectTimeWorkspace/PerfectTime/src/styles/index.css</text>
</g>
<!-- 7 -->
<g id="node35" class="node"><title>7</title>
<polygon fill="palegreen" stroke="black" points="2162.21,-344.3 2162.21,-461.1 2465.79,-461.1 2465.79,-344.3 2162.21,-344.3"/>
<text text-anchor="middle" x="2314" y="-444.5" font-family="Times,serif" font-size="14.00">body</text>
<polyline fill="none" stroke="black" points="2162.21,-436.3 2465.79,-436.3 "/>
<text text-anchor="start" x="2170.21" y="-419.7" font-family="Times,serif" font-size="14.00">+&#45;moz&#45;osx&#45;font&#45;smoothing = grayscale</text>
<text text-anchor="start" x="2170.21" y="-402.9" font-family="Times,serif" font-size="14.00">+&#45;webkit&#45;font&#45;smoothing = antialiased</text>
<text text-anchor="start" x="2170.21" y="-386.1" font-family="Times,serif" font-size="14.00">+font&#45;family = &#45;apple&#45;system, BlinkMacSystemF...</text>
<text text-anchor="start" x="2170.21" y="-369.3" font-family="Times,serif" font-size="14.00">+margin = 0</text>
<text text-anchor="start" x="2170.21" y="-352.5" font-family="Times,serif" font-size="14.00">+padding = 0</text>
</g>
<!-- 2&#45;&gt;7 -->
<g id="edge5" class="edge"><title>2&#45;&gt;7</title>
<path fill="none" stroke="black" d="M2390.21,-498.051C2381.27,-486.985 2370.78,-473.989 2360.48,-461.241"/>
<polygon fill="black" stroke="black" points="2390.39,-498.274 2397.27,-500.428 2397.93,-507.609 2391.05,-505.455 2390.39,-498.274"/>
</g>
<!-- 8 -->
<g id="node36" class="node"><title>8</title>
<polygon fill="palegreen" stroke="black" points="2472.79,-377.9 2472.79,-427.5 2773.21,-427.5 2773.21,-377.9 2472.79,-377.9"/>
<text text-anchor="middle" x="2623" y="-410.9" font-family="Times,serif" font-size="14.00">code</text>
<polyline fill="none" stroke="black" points="2472.79,-402.7 2773.21,-402.7 "/>
<text text-anchor="start" x="2480.79" y="-386.1" font-family="Times,serif" font-size="14.00">+font&#45;family = source&#45;code&#45;pro, Menlo, Monaco...</text>
</g>
<!-- 2&#45;&gt;8 -->
<g id="edge6" class="edge"><title>2&#45;&gt;8</title>
<path fill="none" stroke="black" d="M2458.01,-501.432C2494.84,-479.616 2546.96,-448.745 2582.7,-427.569"/>
<polygon fill="black" stroke="black" points="2457.9,-501.494 2454.78,-507.993 2447.58,-507.609 2450.7,-501.11 2457.9,-501.494"/>
</g>
</g>
</svg>
